<?xml version="1.0" encoding="utf-8"?>
<!-- Generator: Adobe Illustrator 19.0.0, SVG Export Plug-In . SVG Version: 6.00 Build 0)  -->
<svg version="1.1" xmlns="http://www.w3.org/2000/svg" xmlns:xlink="http://www.w3.org/1999/xlink" x="0px" y="0px"
	 viewBox="0 0 3710 3710" style="enable-background:new 0 0 3710 3710;" xml:space="preserve">
<style type="text/css">
	.st0{fill:url(#SVGID_1_);}
	.st1{fill:#D4A1D8;}
	.st2{fill:#FFFFFF;}
	.st3{fill:#AD7AB2;}
	.st4{fill:url(#SVGID_2_);}
	.st5{fill:url(#SVGID_3_);}
	.st6{opacity:0.78;fill:#FFFFFF;}
	.st7{fill:url(#SVGID_4_);}
	.st8{fill:url(#SVGID_5_);}
	.st9{fill:url(#SVGID_6_);}
	.st10{fill:url(#SVGID_7_);}
	.st11{fill:url(#SVGID_8_);}
	.st12{fill:url(#SVGID_9_);}
	.st13{fill:url(#SVGID_10_);}
	.st14{fill:url(#SVGID_11_);}
	.st15{fill:url(#SVGID_12_);}
	.st16{fill:url(#SVGID_13_);}
	.st17{fill:url(#SVGID_14_);}
	.st18{fill:url(#SVGID_15_);}
	.st19{fill:url(#SVGID_16_);}
	.st20{fill:url(#SVGID_17_);}
	.st21{fill:url(#SVGID_18_);}
	.st22{fill:url(#SVGID_19_);}
	.st23{fill:url(#SVGID_20_);}
	.st24{fill:url(#SVGID_21_);}
	.st25{fill:url(#SVGID_22_);}
	.st26{fill:url(#SVGID_23_);}
	.st27{fill:url(#SVGID_24_);}
	.st28{fill:url(#SVGID_25_);}
	.st29{fill:url(#SVGID_26_);}
	.st30{fill:url(#SVGID_27_);}
	.st31{fill:url(#SVGID_28_);}
	.st32{fill:url(#SVGID_29_);}
	.st33{fill:url(#SVGID_30_);}
	.st34{fill:url(#SVGID_31_);}
	.st35{fill:url(#SVGID_32_);}
	.st36{fill:url(#SVGID_33_);}
	.st37{fill:url(#SVGID_34_);}
	.st38{fill:url(#SVGID_35_);}
	.st39{fill:url(#SVGID_36_);}
	.st40{fill:url(#SVGID_37_);}
	.st41{fill:url(#SVGID_38_);}
	.st42{fill:url(#SVGID_39_);}
	.st43{fill:url(#SVGID_40_);}
	.st44{fill:url(#SVGID_41_);}
	.st45{fill:url(#SVGID_42_);}
</style>
<g id="Background">
</g>
<g id="Illustration">
	<g>
		<linearGradient id="SVGID_1_" gradientUnits="userSpaceOnUse" x1="3579.7139" y1="4037.8308" x2="1118.1807" y2="980.7612">
			<stop  offset="0" style="stop-color:#FFFFFF"/>
			<stop  offset="1" style="stop-color:#FFFFFF"/>
		</linearGradient>
		<path class="st0" d="M2902.5,2832.2c-56.5,59.5-110,97.9-152.3,128.2C2253.4,3317,1665.5,3213,1540.5,3187.7
			c-184.5-37.5-541.2-109.9-799-413.1C351.4,2315.8,412.2,1593,714.8,1115.9c55.3-87.3,347.7-571.6,942-649.3
			c359.6-47,778.8,47.8,1082.4,302.1C3376.4,1302.6,3331,2381.2,2902.5,2832.2z"/>
		<g>
			<g>
				<g>
					<path class="st1" d="M510.6,1096.5c-1.5-0.6-2.7-2-2.8-3.7c-0.4-5.6-0.7-11.4-0.9-17.1c-0.1-2.3,1.8-4.3,4.2-4.3
						c5.8-0.1,4.2,5.6,5.3,20.9c0.2,2.3-1.6,4.3-4,4.5C511.8,1096.9,511.2,1096.8,510.6,1096.5z"/>
					<path class="st1" d="M508.6,1022.6c1.1-10.8,2.6-21.7,4.5-32.4c0.4-2.3,2.6-3.8,5-3.4c6.4,1.2,2.2,4.8-0.9,36.7
						c-0.2,2.3-2.3,4-4.7,3.7C510.1,1027,508.4,1024.9,508.6,1022.6z M525.8,938.6c3.3-10.4,7-20.9,11-30.8c2.1-5.3,10.1-1.9,8,3.2
						c-4,9.9-7.6,20-10.8,30.1c-0.7,2.2-3.1,3.4-5.4,2.7C526.3,943.2,525.1,940.8,525.8,938.6z M559.9,860
						c5.3-9.4,11.1-18.8,17.2-27.8c3.1-4.6,10.3,0.1,7.2,4.8c-6,8.8-11.6,18-16.9,27.2C564.7,869.1,557.1,864.9,559.9,860z
						 M610.2,796.1c-1.8-1.5-2-4.2-0.5-6c7.2-8.1,14.9-16.1,22.7-23.7c4-3.9,10.1,2.2,6.1,6.1c-7.7,7.4-15.2,15.2-22.3,23.2
						C614.7,797.5,612,797.7,610.2,796.1z M672.4,737.9c-1.5-1.9-1.1-4.5,0.8-5.9c8.8-6.5,17.9-12.8,27.2-18.6
						c4.8-3,9.5,4.2,4.7,7.2c-9.1,5.7-18.1,11.8-26.7,18.2C676.5,740.2,673.8,739.8,672.4,737.9z M747.9,695.7
						c-1-0.4-1.9-1.1-2.4-2.2c-1-2.1-0.1-4.6,2-5.6c10-4.6,20.2-8.9,30.5-12.7c2.2-0.8,4.7,0.3,5.6,2.5c0.9,2.2-0.2,4.6-2.4,5.4
						c-10.1,3.7-20.2,7.9-29.9,12.5C750.2,696.1,749,696.1,747.9,695.7z M829.1,667.8c-1.3-0.5-2.3-1.6-2.7-3
						c-0.6-2.3,0.8-4.6,3.1-5.1c10.7-2.5,21.7-4.6,32.6-6.3c2.3-0.4,4.6,1.2,5,3.5c0.4,2.3-1.2,4.5-3.5,4.8
						c-10.7,1.6-21.4,3.7-31.9,6.2C830.8,668.1,829.9,668.1,829.1,667.8z M911.9,652.9c-0.1-2.3,1.7-4.3,4.1-4.3
						c11-0.3,22.3-0.2,33.3,0.4c5.7,0.3,5.4,8.7-0.3,8.4c-10.8-0.6-21.8-0.7-32.7-0.4C914,657.1,912,655.3,911.9,652.9z
						 M1187.7,744.8c-25.8-19.7-31.6-19.4-28-24.7c1.3-1.9,3.9-2.5,5.9-1.2c9.3,6,18.5,12.5,27.3,19.2
						C1197.4,741.6,1192.2,748.3,1187.7,744.8z M998.3,658.5c0.4-2.3,2.6-3.8,4.9-3.4c10.9,1.9,21.9,4.3,32.7,7.1
						c5.5,1.4,3.5,9.6-2.1,8.2c-10.5-2.7-21.3-5-32-6.9C999.5,663,997.9,660.8,998.3,658.5z M1114.5,699.9
						c-29.2-14.1-34.9-12.7-32.5-18.6c1.5-3.8,6.1-2.4,5.6-2.3c10.4,4.1,20.7,8.6,30.6,13.4c2.1,1,3.1,3.6,2,5.7
						C1119.3,700,1116.8,701,1114.5,699.9z"/>
					<path class="st1" d="M1239.8,792c-9.9-10.6-16-14.1-11.9-18.2c1.7-1.6,4.4-1.6,6.1,0.1c10.7,10.5,16,14.7,11.9,18.4
						C1244.6,793.4,1241.4,793.7,1239.8,792z"/>
				</g>
				<g>
					<path class="st1" d="M1354.9,1100.3c-1.7-0.7-2.9-2.3-2.8-4.2c0.3-5.6,0.5-11.2,0.6-16.7c0-2.3,2-4.2,4.4-4.1
						c2.4,0.1,4.3,2,4.3,4.3c-0.1,5.7-0.3,11.4-0.6,17.1c-0.1,2.3-2.2,4.1-4.5,3.9C1355.7,1100.6,1355.3,1100.5,1354.9,1100.3z"/>
					<path class="st1" d="M774.5,1455.6c-11.1-4.5-22.1-9.6-32.7-15c-2.1-1.1-3-3.6-1.9-5.7c3-5.8,5.4-0.4,37.8,12.9
						c2.2,0.9,3.3,3.4,2.4,5.5C778.5,1457.1,773.9,1455.6,774.5,1455.6z M826.8,1469c1.6-6.3,5.4-1.5,39.7,4.6
						c2.4,0.4,3.9,2.6,3.5,4.9c-0.4,2.3-2.6,3.8-4.9,3.4c-11.7-2.1-23.5-4.7-35.1-7.7C827.6,1473.5,826.2,1471.2,826.8,1469z
						 M691.5,1410.7c-9.8-6.8-19.5-14.1-28.7-21.7c-1.8-1.5-2.1-4.2-0.6-6c4.3-5,5.4,0.8,34.2,20.7c2,1.4,2.5,4,1.1,5.9
						C696.2,1411.6,693.5,1412,691.5,1410.7z M921.7,1487.9c-1.7-0.6-2.9-2.3-2.8-4.1c0.1-2.3,2-4.1,4.4-4.1
						c11.7,0.5,23.5,0.5,35.2,0c2.4-0.1,4.4,1.7,4.5,4c0.1,2.3-1.7,4.3-4,4.4c-11.9,0.5-24,0.5-35.9,0
						C922.6,1488.1,922.1,1488,921.7,1487.9z M1014.4,1481.5c-1.4-0.5-2.4-1.7-2.7-3.2c-0.5-2.3,1.1-4.5,3.4-4.9
						c11.4-2.1,22.9-4.6,34.2-7.6c2.3-0.6,4.7,0.7,5.3,3c0.7,2.3-0.7,4.6-2.9,5.2c-11.5,3.1-23.2,5.7-34.9,7.8
						C1015.9,1481.8,1015.1,1481.8,1014.4,1481.5z M1103.2,1455.2c-1.1-0.4-2-1.2-2.4-2.3c-1-2.2,0-4.6,2.2-5.5
						c10.7-4.5,21.3-9.5,31.6-14.8c2.1-1.1,4.7-0.3,5.8,1.8c1.1,2.1,0.4,4.6-1.7,5.7c-10.5,5.5-21.3,10.5-32.2,15.1
						C1105.4,1455.6,1104.2,1455.6,1103.2,1455.2z M1183.7,1410.5c-0.8-0.3-1.5-0.8-2-1.5c-1.4-1.9-1-4.5,0.9-5.9
						c9.4-6.7,18.6-13.8,27.4-21.3c1.8-1.5,4.5-1.3,6.1,0.5c1.6,1.8,1.4,4.4-0.4,6c-9,7.6-18.4,14.9-28,21.7
						C1186.6,1410.9,1185,1411,1183.7,1410.5z M1250.8,1348.6c-5-4.4,0.9-5.3,21.5-32.7c3.4-4.5,10.3,0.6,7,5.1
						c-7,9.4-14.5,18.5-22.4,27.3C1255.4,1350,1252.6,1350.2,1250.8,1348.6z M1304.5,1274.6c-5.9-3.2-0.3-5.3,13.5-36.6
						c2.3-5.1,10.2-1.6,7.9,3.5c-4.7,10.7-10,21.3-15.6,31.5C1309.2,1275,1306.5,1275.7,1304.5,1274.6z M1339.7,1190.4
						c-2.1-0.8-3.3-3-2.6-5.1c3.2-11.1,5.9-22.3,8.1-33.5c0.4-2.3,2.7-3.8,5-3.3c2.3,0.5,3.9,2.7,3.4,5c-2.2,11.4-5,22.9-8.2,34.2
						c-0.6,2.2-3,3.5-5.3,2.9C1340,1190.5,1339.9,1190.5,1339.7,1190.4z"/>
					<path class="st1" d="M620.3,1348.9c-10.2-11-15.3-15.4-11-18.9c4.4-3.7,6.9,2,17.4,13.3c1.6,1.7,1.5,4.4-0.2,6
						C624.6,1350.7,621.9,1350.6,620.3,1348.9z"/>
				</g>
				<g>
					<path class="st1" d="M667.3,1241.9l61.2-7.6c18.6,21.9,40.9,41.1,66.3,56.6c2.4,59-1.6,63.3,4.7,65.4l70.5,23.5
						c2.1,0.7,4.3,0,5.6-1.7l37.1-47.9c29.6,2.9,58.9,0.8,86.9-5.5l44.5,42.8c1.6,1.5,3.9,1.9,5.8,0.9l66-32.1c1.9-0.9,3-3,2.7-5.1
						l-8.6-60.2c22-18,41.2-39.6,56.6-64.4l61.7-0.2c2.2,0,4.1-1.4,4.7-3.4l22.8-68.9c0.7-2,0-4.2-1.8-5.5l-49.3-37.2
						c2.5-29,0-57.9-7-85.5c41-43,46.7-43,43.7-48.8c-34.2-63.5-32.2-68.9-38.9-68.1l-61.2,7.6c-18.6-21.9-40.9-41.1-66.3-56.6
						c-2.4-58.9,1.6-63.3-4.7-65.4c-70.4-22.1-72.1-27-76.1-21.8l-37.1,47.9c-29.6-2.9-58.9-0.8-86.9,5.5
						c-43.8-40.4-44.4-46.6-50.3-43.7c-64.7,33-69.6,30.7-68.7,37.2l8.6,60.2c-22,18-41.2,39.6-56.6,64.4
						c-58.9,1.4-64.4-2.7-66.5,3.6c-21.4,68.6-26.4,70.5-21.1,74.5l49.3,37.2c-2.5,29,0,57.9,7,85.5c-40.8,42.8-46.7,43-43.7,48.8
						C662.6,1237.3,660.6,1242.7,667.3,1241.9z"/>
					<g>
						<path class="st2" d="M862.9,1059.6c2.6-39,37.1-68.2,76.9-65c39.7,3.2,70,37.5,67.3,76.5c-2.6,39-37.1,68.2-76.9,65l0,0
							C890.4,1133,860.2,1098.6,862.9,1059.6z M930.6,1129.8L930.6,1129.8L930.6,1129.8z M938.9,1007.2
							c-32.3-2.6-60.9,20.9-63.1,53.4c-2.2,32.1,22.7,60.3,55.3,62.9c32.6,2.6,61-21.4,63.1-53.4
							C996.3,1037.9,971.5,1009.8,938.9,1007.2z"/>
					</g>
					<path class="st2" d="M872.1,1234.4L872.1,1234.4c-10-3.8-19.7-8.4-28.9-13.8c-2.8-1.6-3.9-4.9-2.8-7.7c0.1-0.3,0.3-0.7,0.5-1
						c1.8-3,5.7-4,8.8-2.2c10.5,6.2,21.8,11.3,33.5,15.2l0,0c88.2,29.4,182.9-15,214.7-99.2c0.8-2.2,1.6-4.3,2.3-6.5
						c29.5-89-20.6-184.9-110.9-215c-90.1-30-187.6,17-217.1,105.7c-17.5,52.8-2.2,88.3-4.3,93.7c-2.2,5.9-10.9,5.2-12.3-0.9
						c-7.8-33.5-6.1-69.7,6.8-103.9c55.7-147.5,265.6-156.5,338.7-14.6c22.5,43.6,26.5,93,11.3,139.1c-0.8,2.4-1.6,4.7-2.5,7.1
						c-16.2,42.8-47.7,77.3-89.5,97.6c-44.1,21.5-94.3,24.7-141.3,9C876.8,1236.1,874.4,1235.3,872.1,1234.4z"/>
				</g>
			</g>
			<g>
				<g>
					<path class="st1" d="M1232.5,786.9c-0.9-0.4-1.6-1.2-1.7-2.2c-0.3-3.4-0.4-6.9-0.6-10.4c0-1.4,1.1-2.6,2.5-2.6
						c3.5-0.1,2.5,3.4,3.2,12.7c0.1,1.4-1,2.6-2.4,2.7C1233.2,787.1,1232.8,787.1,1232.5,786.9z"/>
					<path class="st1" d="M1231.3,742.1c0.6-6.6,1.6-13.2,2.7-19.7c0.2-1.4,1.6-2.3,3-2c3.9,0.7,1.3,2.9-0.5,22.3
						c-0.1,1.4-1.4,2.4-2.8,2.3C1232.2,744.7,1231.1,743.5,1231.3,742.1z M1241.7,691.1c2-6.3,4.3-12.7,6.7-18.7
						c1.3-3.2,6.1-1.1,4.9,2c-2.4,6-4.6,12.1-6.6,18.3c-0.4,1.3-1.9,2.1-3.3,1.6C1242,693.9,1241.3,692.5,1241.7,691.1z
						 M1262.4,643.5c3.2-5.7,6.8-11.4,10.4-16.9c1.9-2.8,6.3,0.1,4.4,2.9c-3.6,5.4-7.1,10.9-10.2,16.5
						C1265.3,649,1260.7,646.4,1262.4,643.5z M1292.9,604.7c-1.1-0.9-1.2-2.6-0.3-3.6c4.4-4.9,9-9.8,13.8-14.4
						c2.5-2.4,6.1,1.3,3.7,3.7c-4.7,4.5-9.2,9.2-13.5,14.1C1295.6,605.5,1294,605.6,1292.9,604.7z M1330.6,569.4
						c-0.9-1.1-0.7-2.7,0.5-3.6c5.3-3.9,10.9-7.7,16.5-11.3c2.9-1.8,5.7,2.5,2.9,4.3c-5.5,3.5-11,7.2-16.2,11
						C1333.1,570.8,1331.5,570.5,1330.6,569.4z M1376.4,543.8c-0.6-0.2-1.1-0.7-1.4-1.3c-0.6-1.3-0.1-2.8,1.2-3.4
						c6-2.8,12.3-5.4,18.5-7.7c1.3-0.5,2.9,0.2,3.4,1.5c0.5,1.3-0.1,2.8-1.5,3.3c-6.1,2.3-12.2,4.8-18.2,7.6
						C1377.8,544,1377.1,544,1376.4,543.8z M1425.7,526.8c-0.8-0.3-1.4-0.9-1.6-1.8c-0.4-1.4,0.5-2.8,1.9-3.1
						c6.5-1.5,13.2-2.8,19.8-3.8c1.4-0.2,2.8,0.7,3,2.1c0.2,1.4-0.7,2.7-2.1,2.9c-6.5,1-13,2.3-19.4,3.7
						C1426.7,527.1,1426.2,527,1425.7,526.8z M1475.9,517.8c-0.1-1.4,1.1-2.6,2.5-2.6c6.7-0.2,13.5-0.1,20.2,0.3
						c3.5,0.2,3.3,5.3-0.2,5.1c-6.6-0.3-13.2-0.4-19.8-0.2C1477.2,520.4,1476,519.2,1475.9,517.8z M1643.2,573.6
						c-15.6-11.9-19.2-11.7-17-15c0.8-1.2,2.4-1.5,3.6-0.7c5.6,3.7,11.2,7.6,16.6,11.7C1649.1,571.6,1646,575.7,1643.2,573.6z
						 M1528.3,521.2c0.2-1.4,1.6-2.3,3-2.1c6.6,1.2,13.3,2.6,19.8,4.3c3.4,0.9,2.1,5.8-1.2,5c-6.4-1.6-12.9-3.1-19.4-4.2
						C1529,524,1528.1,522.6,1528.3,521.2z M1598.8,546.3c-17.7-8.6-21.1-7.7-19.7-11.3c0.9-2.3,3.7-1.4,3.4-1.4
						c6.3,2.5,12.5,5.2,18.6,8.1c1.3,0.6,1.9,2.2,1.2,3.4C1601.7,546.4,1600.2,547,1598.8,546.3z"/>
					<path class="st1" d="M1674.8,602.2c-6-6.4-9.7-8.6-7.2-11c1-1,2.7-1,3.7,0c6.5,6.4,9.7,8.9,7.2,11.2
						C1677.8,603,1675.8,603.2,1674.8,602.2z"/>
				</g>
				<g>
					<path class="st1" d="M1744.7,789.2c-1-0.4-1.8-1.4-1.7-2.6c0.2-3.4,0.3-6.8,0.3-10.1c0-1.4,1.2-2.5,2.6-2.5
						c1.4,0,2.6,1.2,2.6,2.6c0,3.4-0.2,6.9-0.3,10.4c-0.1,1.4-1.3,2.5-2.7,2.4C1745.2,789.4,1744.9,789.3,1744.7,789.2z"/>
					<path class="st1" d="M1392.5,1004.8c-6.7-2.7-13.4-5.8-19.9-9.1c-1.3-0.7-1.8-2.2-1.2-3.5c1.8-3.5,3.3-0.2,23,7.8
						c1.3,0.5,2,2.1,1.5,3.4C1395,1005.7,1392.2,1004.8,1392.5,1004.8z M1424.3,1012.9c1-3.9,3.3-0.9,24.1,2.8
						c1.4,0.2,2.4,1.6,2.2,3c-0.2,1.4-1.6,2.3-3,2.1c-7.1-1.3-14.3-2.8-21.3-4.7C1424.8,1015.7,1423.9,1014.2,1424.3,1012.9z
						 M1342.2,977.5c-5.9-4.1-11.8-8.5-17.4-13.1c-1.1-0.9-1.3-2.5-0.4-3.6c2.6-3,3.3,0.5,20.7,12.6c1.2,0.8,1.5,2.4,0.7,3.6
						C1345,978.1,1343.4,978.3,1342.2,977.5z M1481.9,1024.3c-1-0.4-1.7-1.4-1.7-2.5c0-1.4,1.2-2.5,2.7-2.5c7.1,0.3,14.3,0.3,21.3,0
						c1.4-0.1,2.7,1,2.8,2.5c0.1,1.4-1,2.6-2.5,2.7c-7.2,0.3-14.5,0.3-21.8,0C1482.4,1024.5,1482.1,1024.4,1481.9,1024.3z
						 M1538.1,1020.5c-0.8-0.3-1.5-1-1.7-1.9c-0.3-1.4,0.6-2.7,2.1-3c6.9-1.2,13.9-2.8,20.7-4.6c1.4-0.4,2.8,0.4,3.2,1.8
						c0.4,1.4-0.4,2.8-1.8,3.1c-7,1.9-14.1,3.5-21.2,4.7C1539,1020.7,1538.6,1020.6,1538.1,1020.5z M1592,1004.6
						c-0.6-0.2-1.2-0.7-1.5-1.4c-0.6-1.3,0-2.8,1.3-3.4c6.5-2.7,12.9-5.7,19.1-9c1.3-0.7,2.9-0.2,3.5,1.1c0.7,1.3,0.2,2.8-1,3.5
						c-6.3,3.3-12.9,6.4-19.5,9.2C1593.3,1004.8,1592.6,1004.8,1592,1004.6z M1640.8,977.4c-0.5-0.2-0.9-0.5-1.2-0.9
						c-0.9-1.2-0.6-2.8,0.6-3.6c5.7-4,11.3-8.4,16.6-12.9c1.1-0.9,2.7-0.8,3.7,0.3c1,1.1,0.8,2.7-0.2,3.6c-5.4,4.6-11.2,9-17,13.2
						C1642.5,977.6,1641.6,977.7,1640.8,977.4z M1681.5,939.9c-3.1-2.7,0.5-3.2,13-19.8c2-2.7,6.3,0.4,4.2,3.1
						c-4.3,5.7-8.8,11.2-13.6,16.5C1684.3,940.7,1682.6,940.8,1681.5,939.9z M1714.1,895c-3.6-1.9-0.2-3.2,8.2-22.2
						c1.4-3.1,6.2-1,4.8,2.1c-2.9,6.5-6.1,12.9-9.5,19.1C1716.9,895.2,1715.3,895.6,1714.1,895z M1735.5,843.9
						c-1.3-0.5-2-1.8-1.6-3.1c1.9-6.7,3.6-13.6,4.9-20.3c0.3-1.4,1.6-2.3,3.1-2c1.4,0.3,2.3,1.6,2.1,3c-1.4,6.9-3,13.9-5,20.8
						c-0.4,1.4-1.8,2.1-3.2,1.7C1735.6,843.9,1735.5,843.9,1735.5,843.9z"/>
					<path class="st1" d="M1299,940c-6.2-6.7-9.3-9.3-6.7-11.5c2.7-2.2,4.2,1.2,10.5,8.1c1,1.1,0.9,2.7-0.1,3.6
						C1301.6,941.2,1300,941.1,1299,940z"/>
				</g>
				<g>
					<path class="st1" d="M1327.5,875.1l37.1-4.6c11.3,13.3,24.8,25,40.2,34.3c1.4,35.8-1,38.4,2.8,39.7l42.8,14.2
						c1.2,0.4,2.6,0,3.4-1l22.5-29.1c17.9,1.7,35.7,0.5,52.7-3.4l27,26c0.9,0.9,2.4,1.1,3.5,0.6l40-19.5c1.2-0.6,1.8-1.8,1.6-3.1
						l-5.2-36.6c13.4-10.9,25-24,34.3-39l37.4-0.1c1.3,0,2.5-0.8,2.9-2.1l13.8-41.8c0.4-1.2,0-2.6-1.1-3.4l-29.9-22.6
						c1.5-17.6,0-35.1-4.2-51.9c24.8-26.1,28.3-26.1,26.5-29.6c-20.7-38.5-19.6-41.8-23.6-41.3l-37.1,4.6
						c-11.3-13.3-24.8-25-40.2-34.3c-1.4-35.8,1-38.4-2.8-39.7c-42.7-13.4-43.8-16.4-46.2-13.2l-22.5,29.1
						c-17.9-1.7-35.7-0.5-52.7,3.4c-26.6-24.5-26.9-28.3-30.5-26.5c-39.3,20-42.2,18.6-41.7,22.6l5.2,36.6c-13.4,10.9-25,24-34.3,39
						c-35.7,0.9-39.1-1.6-40.3,2.2c-13,41.6-16,42.8-12.8,45.2l29.9,22.6c-1.5,17.6,0,35.1,4.2,51.9c-24.8,26-28.3,26.1-26.5,29.6
						C1324.7,872.4,1323.5,875.6,1327.5,875.1z"/>
					<g>
						<path class="st2" d="M1446.2,764.5c1.6-23.7,22.5-41.4,46.6-39.5c24.1,1.9,42.4,22.8,40.9,46.4c-1.6,23.7-22.5,41.4-46.6,39.5
							l0,0C1462.9,809,1444.6,788.2,1446.2,764.5z M1487.3,807.1L1487.3,807.1L1487.3,807.1z M1492.3,732.7
							c-19.6-1.6-37,12.7-38.3,32.4c-1.3,19.4,13.7,36.6,33.6,38.1c19.8,1.6,37-13,38.3-32.4
							C1527.1,751.4,1512.1,734.3,1492.3,732.7z"/>
					</g>
					<path class="st2" d="M1451.8,870.6L1451.8,870.6c-6.1-2.3-12-5.1-17.5-8.3c-1.7-1-2.4-3-1.7-4.7c0.1-0.2,0.2-0.4,0.3-0.6
						c1.1-1.8,3.5-2.4,5.4-1.3c6.4,3.7,13.2,6.8,20.3,9.2l0,0c53.5,17.8,111-9.1,130.3-60.2c0.5-1.3,1-2.6,1.4-4
						c17.9-54-12.5-112.2-67.3-130.4c-54.7-18.2-113.8,10.3-131.7,64.1c-10.6,32-1.3,53.5-2.6,56.8c-1.3,3.6-6.6,3.1-7.5-0.6
						c-4.8-20.3-3.7-42.3,4.1-63c33.8-89.5,161.1-94.9,205.5-8.9c13.7,26.5,16.1,56.4,6.8,84.4c-0.5,1.4-1,2.9-1.5,4.3
						c-9.8,25.9-28.9,46.9-54.3,59.2c-26.7,13-57.2,15-85.7,5.4C1454.6,871.6,1453.2,871.1,1451.8,870.6z"/>
				</g>
			</g>
		</g>
		<g>
			<g>
				<path class="st3" d="M1457.1,2246h-386.7c-27.1,0-52.1,19.8-52.1,33.5v839.5c0,13.7,25,27.2,52.1,27.2h386.7
					c27.1,0,58.5-13.5,58.5-27.2v-839.5C1515.5,2265.7,1484.2,2246,1457.1,2246z"/>
			</g>
			<g>
				<path class="st3" d="M954.9,2553.8c0-7.1-24.4-14.4-51.5-14.4H521c-27.1,0-51.3,7.3-51.3,14.4v578.5c0,7.1,24.2,13.8,51.3,13.8
					h382.3c27.1,0,51.5-6.7,51.5-13.8V2553.8z"/>
			</g>
			<g>
				<path class="st3" d="M3154.6,1180.2c0-17.4-29.1-30.6-56.3-30.6h-387.1c-27.1,0-47.9,13.1-47.9,30.6v1929.2
					c0,17.4,20.8,36.7,47.9,36.7h387.1c27.1,0,56.3-19.3,56.3-36.7V1180.2z"/>
			</g>
			<g>
				<path class="st3" d="M2059.1,1902c0-12.8-23.4-24.7-50.5-24.7h-382.3c-27.1,0-46.3,11.9-46.3,24.7v1219.4
					c0,12.8,19.2,24.7,46.3,24.7h382.3c27.1,0,50.5-11.8,50.5-24.7V1902z"/>
			</g>
			<g>
				<path class="st3" d="M2603.4,1525.2c0-14.4-21.5-24-48.6-24h-382.3c-27.1,0-48.2,9.6-48.2,24v1596c0,14.4,21.1,24.8,48.2,24.8
					h382.3c27.1,0,48.6-10.5,48.6-24.8V1525.2z"/>
			</g>
			<g>
				<path class="st3" d="M2571.9,1158.5l309.5-455.6c9-13.2,27.8-13.4,36.9-0.3l319.1,455.6c11,15.7,0.2,37.7-18.4,37.7h-628.6
					C2572,1195.9,2561.2,1174.2,2571.9,1158.5z"/>
			</g>
		</g>
		<g>
			<g>
				<linearGradient id="SVGID_2_" gradientUnits="userSpaceOnUse" x1="2511.5103" y1="2681.7646" x2="2922.814" y2="2204.3594">
					<stop  offset="0" style="stop-color:#FFCF68"/>
					<stop  offset="1" style="stop-color:#FFDC8C"/>
				</linearGradient>
				<circle class="st4" cx="2931.1" cy="2194.7" r="306.6"/>
				<linearGradient id="SVGID_3_" gradientUnits="userSpaceOnUse" x1="3155.2273" y1="1856.1571" x2="1938.9919" y2="3693.542">
					<stop  offset="0" style="stop-color:#FFCBA9"/>
					<stop  offset="1" style="stop-color:#FFE6A9"/>
				</linearGradient>
				<circle class="st5" cx="2931.1" cy="2194.7" r="296.4"/>
				<path class="st6" d="M2686.7,2078.4c-1,0-2.1-0.2-3.1-0.7c-3.4-1.7-4.7-5.8-3-9.1c48-95.1,144-154.2,250.5-154.2
					c17,0,34,1.5,50.6,4.6c3.7,0.7,6.1,4.2,5.5,7.9c-0.7,3.7-4.2,6.1-7.9,5.5c-15.8-2.9-32-4.3-48.2-4.3
					c-101.3,0-192.7,56.2-238.4,146.8C2691.6,2077,2689.2,2078.4,2686.7,2078.4z"/>
				<circle class="st6" cx="2937.6" cy="2201.2" r="250.9"/>
				<g>
					<linearGradient id="SVGID_4_" gradientUnits="userSpaceOnUse" x1="2939.0012" y1="1928.929" x2="2939.0012" y2="2321.2798">
						<stop  offset="0" style="stop-color:#FFCBA9"/>
						<stop  offset="1" style="stop-color:#FFE6A9"/>
					</linearGradient>
					<path class="st7" d="M2913,2387.7v-27.3c-28.5-1.1-56.6-7.9-76.6-16.6c-7.1-3.1-10.8-11.1-8.7-18.7l6.9-25.4
						c2.5-9.3,12.7-14.2,21.6-10.4c19.8,8.3,44.3,14.9,70.7,14.9c27.4,0,47.8-9.3,47.8-28.3c0-17.2-15.8-27.4-53.9-37.6
						c-54.4-14.9-93.4-38.6-93.4-86.4c0-43.2,31.6-76.2,86.4-85v-27.3c0-8.8,7.1-15.9,15.9-15.9h16c8.8,0,15.9,7.1,15.9,15.9v24.5
						c26.3,1.1,45.5,5.6,60.7,10.9c7.8,2.7,12.1,11.1,9.9,19.1l-6.4,23.5c-2.5,9.1-12.2,14-20.9,10.7c-14-5.3-33.8-10.8-59.5-10.8
						c-32.5,0-41.8,13.5-41.8,25.5c0,14.9,19.5,25.1,61.8,38.1c60.4,18.1,85.5,43.2,85.5,88.3c0,41.3-30.7,78.5-90.1,87.8v30.5
						c0,8.8-7.1,15.9-15.9,15.9h-16C2920.1,2403.6,2913,2396.5,2913,2387.7z"/>
				</g>
			</g>
			<linearGradient id="SVGID_5_" gradientUnits="userSpaceOnUse" x1="2953.7681" y1="2536.8396" x2="2893.8184" y2="2822.574">
				<stop  offset="0" style="stop-color:#FFCBA9"/>
				<stop  offset="1" style="stop-color:#FFE6A9"/>
			</linearGradient>
			<path class="st8" d="M3227.9,2702h-593.6c-2,0-3.6-1.6-3.6-3.6v-107.2c0-2,1.6-3.6,3.6-3.6h593.6c2,0,3.6,1.6,3.6,3.6v107.2
				C3231.5,2700.4,3229.9,2702,3227.9,2702z"/>
			<linearGradient id="SVGID_6_" gradientUnits="userSpaceOnUse" x1="2954.2397" y1="2666.0579" x2="2894.29" y2="2951.792">
				<stop  offset="0" style="stop-color:#FFCBA9"/>
				<stop  offset="1" style="stop-color:#FFE6A9"/>
			</linearGradient>
			<path class="st9" d="M3228.4,2831.2h-593.6c-2,0-3.6-1.6-3.6-3.6v-107.2c0-2,1.6-3.6,3.6-3.6h593.6c2,0,3.6,1.6,3.6,3.6v107.2
				C3232,2829.6,3230.4,2831.2,3228.4,2831.2z"/>
			<linearGradient id="SVGID_7_" gradientUnits="userSpaceOnUse" x1="2954.7117" y1="2795.2759" x2="2894.7622" y2="3081.0103">
				<stop  offset="0" style="stop-color:#FFCBA9"/>
				<stop  offset="1" style="stop-color:#FFE6A9"/>
			</linearGradient>
			<path class="st10" d="M3228.9,2960.4h-593.6c-2,0-3.6-1.6-3.6-3.6v-107.2c0-2,1.6-3.6,3.6-3.6h593.6c2,0,3.6,1.6,3.6,3.6v107.2
				C3232.5,2958.8,3230.9,2960.4,3228.9,2960.4z"/>
			<linearGradient id="SVGID_8_" gradientUnits="userSpaceOnUse" x1="2955.1833" y1="2921.1501" x2="2895.2336" y2="3206.8848">
				<stop  offset="0" style="stop-color:#FFCBA9"/>
				<stop  offset="1" style="stop-color:#FFE6A9"/>
			</linearGradient>
			<path class="st11" d="M3229.3,3086.3h-593.6c-2,0-3.6-1.6-3.6-3.6v-107.2c0-2,1.6-3.6,3.6-3.6h593.6c2,0,3.6,1.6,3.6,3.6v107.2
				C3233,3084.7,3231.3,3086.3,3229.3,3086.3z"/>
			<linearGradient id="SVGID_9_" gradientUnits="userSpaceOnUse" x1="2955.655" y1="3047.0244" x2="2895.7053" y2="3332.7588">
				<stop  offset="0" style="stop-color:#FFCBA9"/>
				<stop  offset="1" style="stop-color:#FFE6A9"/>
			</linearGradient>
			<path class="st12" d="M3229.8,3212.2h-593.6c-2,0-3.6-1.6-3.6-3.6v-107.2c0-2,1.6-3.6,3.6-3.6h593.6c2,0,3.6,1.6,3.6,3.6v107.2
				C3233.4,3210.6,3231.8,3212.2,3229.8,3212.2z"/>
		</g>
		<g>
			<g>
				<linearGradient id="SVGID_10_" gradientUnits="userSpaceOnUse" x1="1860.5923" y1="2817.6707" x2="2271.8958" y2="2340.2654">
					<stop  offset="0" style="stop-color:#FFCF68"/>
					<stop  offset="1" style="stop-color:#FFDC8C"/>
				</linearGradient>
				<circle class="st13" cx="2280.2" cy="2330.6" r="306.6"/>
				<linearGradient id="SVGID_11_" gradientUnits="userSpaceOnUse" x1="2504.3091" y1="1992.0631" x2="1288.0742" y2="3829.4475">
					<stop  offset="0" style="stop-color:#FFCBA9"/>
					<stop  offset="1" style="stop-color:#FFE6A9"/>
				</linearGradient>
				<circle class="st14" cx="2280.2" cy="2330.6" r="296.4"/>
				<path class="st6" d="M2035.8,2214.3c-1,0-2.1-0.2-3.1-0.7c-3.4-1.7-4.7-5.8-3-9.1c48-95.1,144-154.2,250.5-154.2
					c17,0,34,1.5,50.6,4.5c3.7,0.7,6.1,4.2,5.5,7.9c-0.7,3.7-4.2,6.1-7.9,5.5c-15.8-2.9-32-4.3-48.2-4.3
					c-101.3,0-192.7,56.2-238.4,146.8C2040.6,2212.9,2038.2,2214.3,2035.8,2214.3z"/>
				<circle class="st6" cx="2286.7" cy="2337.1" r="250.9"/>
				<g>
					<linearGradient id="SVGID_12_" gradientUnits="userSpaceOnUse" x1="2337.6125" y1="1980.7968" x2="2261.8171" y2="2542.5745">
						<stop  offset="0" style="stop-color:#FFCBA9"/>
						<stop  offset="1" style="stop-color:#FFE6A9"/>
					</linearGradient>
					<path class="st15" d="M2262,2523.6v-27.3c-28.5-1.1-56.6-7.9-76.6-16.6c-7.1-3.1-10.8-11.1-8.7-18.7l6.9-25.4
						c2.5-9.3,12.7-14.2,21.6-10.4c19.8,8.3,44.3,14.9,70.7,14.9c27.4,0,47.8-9.3,47.8-28.3c0-17.2-15.8-27.4-53.9-37.6
						c-54.4-14.9-93.4-38.6-93.4-86.4c0-43.2,31.6-76.2,86.4-85v-27.3c0-8.8,7.1-15.9,15.9-15.9h16c8.8,0,15.9,7.1,15.9,15.9v24.5
						c26.3,1.1,45.5,5.6,60.7,10.9c7.8,2.7,12.1,11.1,9.9,19.1l-6.4,23.5c-2.5,9.1-12.2,14-20.9,10.7c-14-5.3-33.8-10.8-59.5-10.8
						c-32.5,0-41.8,13.5-41.8,25.5c0,14.9,19.5,25.1,61.8,38.1c60.4,18.1,85.5,43.2,85.5,88.3c0,41.3-30.7,78.5-90.1,87.8v30.5
						c0,8.8-7.1,15.9-15.9,15.9h-16C2269.2,2539.5,2262,2532.4,2262,2523.6z"/>
				</g>
			</g>
			<linearGradient id="SVGID_13_" gradientUnits="userSpaceOnUse" x1="2302.8501" y1="2659.3699" x2="2242.9004" y2="2945.1045">
				<stop  offset="0" style="stop-color:#FFCBA9"/>
				<stop  offset="1" style="stop-color:#FFE6A9"/>
			</linearGradient>
			<path class="st16" d="M2577,2824.5h-593.6c-2,0-3.6-1.6-3.6-3.6v-107.2c0-2,1.6-3.6,3.6-3.6H2577c2,0,3.6,1.6,3.6,3.6v107.2
				C2580.6,2822.9,2579,2824.5,2577,2824.5z"/>
			<linearGradient id="SVGID_14_" gradientUnits="userSpaceOnUse" x1="2303.3218" y1="2788.5881" x2="2243.3721" y2="3074.3225">
				<stop  offset="0" style="stop-color:#FFCBA9"/>
				<stop  offset="1" style="stop-color:#FFE6A9"/>
			</linearGradient>
			<path class="st17" d="M2577.5,2953.7h-593.6c-2,0-3.6-1.6-3.6-3.6v-107.2c0-2,1.6-3.6,3.6-3.6h593.6c2,0,3.6,1.6,3.6,3.6v107.2
				C2581.1,2952.1,2579.5,2953.7,2577.5,2953.7z"/>
			<linearGradient id="SVGID_15_" gradientUnits="userSpaceOnUse" x1="2303.7937" y1="2917.8064" x2="2243.844" y2="3203.5408">
				<stop  offset="0" style="stop-color:#FFCBA9"/>
				<stop  offset="1" style="stop-color:#FFE6A9"/>
			</linearGradient>
			<path class="st18" d="M2577.9,3083h-593.6c-2,0-3.6-1.6-3.6-3.6v-107.2c0-2,1.6-3.6,3.6-3.6h593.6c2,0,3.6,1.6,3.6,3.6v107.2
				C2581.6,3081.3,2579.9,3083,2577.9,3083z"/>
			<linearGradient id="SVGID_16_" gradientUnits="userSpaceOnUse" x1="2304.2654" y1="3047.0244" x2="2244.3157" y2="3332.7588">
				<stop  offset="0" style="stop-color:#FFCBA9"/>
				<stop  offset="1" style="stop-color:#FFE6A9"/>
			</linearGradient>
			<path class="st19" d="M2578.4,3212.2h-593.6c-2,0-3.6-1.6-3.6-3.6v-107.2c0-2,1.6-3.6,3.6-3.6h593.6c2,0,3.6,1.6,3.6,3.6v107.2
				C2582,3210.6,2580.4,3212.2,2578.4,3212.2z"/>
		</g>
		<g>
			<linearGradient id="SVGID_17_" gradientUnits="userSpaceOnUse" x1="849.2071" y1="2923.3333" x2="867.8254" y2="2923.3333">
				<stop  offset="0" style="stop-color:#FFCF68"/>
				<stop  offset="1" style="stop-color:#FFDC8C"/>
			</linearGradient>
			<path class="st20" d="M862.8,2933.5c-1.4,0-2.8-0.6-3.8-1.8c-2.9-3.4-5.8-6.9-8.6-10.3c-1.8-2.1-1.5-5.3,0.7-7.1
				c2.1-1.8,5.3-1.4,7.1,0.7c2.8,3.4,5.7,6.8,8.5,10.2c1.8,2.1,1.5,5.3-0.6,7.1C865.1,2933.1,864,2933.5,862.8,2933.5z"/>
			<linearGradient id="SVGID_18_" gradientUnits="userSpaceOnUse" x1="687.2167" y1="2037.1234" x2="1820.0188" y2="2037.1234">
				<stop  offset="0" style="stop-color:#FFCF68"/>
				<stop  offset="1" style="stop-color:#FFDC8C"/>
			</linearGradient>
			<path class="st21" d="M837.7,2902.4c-1.5,0-3-0.7-4-2c-5.4-7.1-10.8-14.3-15.9-21.5c-1.6-2.3-1.1-5.4,1.2-7
				c2.2-1.6,5.4-1.1,7,1.2c5.1,7.1,10.4,14.2,15.7,21.2c1.7,2.2,1.3,5.3-0.9,7C839.8,2902.1,838.8,2902.4,837.7,2902.4z
				 M806.8,2859.2c-1.6,0-3.2-0.8-4.2-2.2c-4.9-7.4-9.8-15-14.4-22.6c-1.4-2.4-0.7-5.4,1.6-6.9c2.4-1.4,5.5-0.7,6.9,1.7
				c4.6,7.5,9.4,15,14.2,22.3c1.5,2.3,0.9,5.4-1.4,7C808.7,2858.9,807.7,2859.2,806.8,2859.2z M779,2813.9c-1.8,0-3.4-0.9-4.4-2.6
				c-4.4-7.8-8.7-15.7-12.7-23.5c-1.3-2.5-0.3-5.5,2.2-6.8c2.4-1.3,5.5-0.3,6.8,2.2c4,7.7,8.2,15.5,12.6,23.2
				c1.4,2.4,0.5,5.5-1.9,6.8C780.7,2813.7,779.8,2813.9,779,2813.9z M754.6,2766.6c-1.9,0-3.7-1.1-4.5-2.9
				c-3.8-8.1-7.5-16.3-10.9-24.4c-1.1-2.6,0.1-5.5,2.7-6.6c2.5-1.1,5.5,0.1,6.6,2.7c3.4,8,7,16.1,10.8,24.1c1.2,2.5,0.1,5.5-2.4,6.7
				C756,2766.5,755.3,2766.6,754.6,2766.6z M733.8,2717.7c-2,0-3.9-1.2-4.7-3.2c-3.2-8.4-6.2-16.8-9-25.2c-0.9-2.6,0.5-5.5,3.2-6.3
				c2.6-0.9,5.5,0.5,6.3,3.2c2.8,8.3,5.7,16.6,8.8,24.9c1,2.6-0.3,5.5-2.9,6.5C735,2717.6,734.4,2717.7,733.8,2717.7z M717,2667.3
				c-2.2,0-4.2-1.4-4.8-3.6c-2.5-8.5-4.8-17.2-6.9-25.9c-0.7-2.7,1-5.4,3.7-6.1c2.7-0.7,5.4,1,6.1,3.7c2.1,8.5,4.4,17.1,6.8,25.5
				c0.8,2.7-0.8,5.4-3.4,6.2C718,2667.2,717.5,2667.3,717,2667.3z M704.4,2615.7c-2.3,0-4.4-1.6-4.9-4c-1.8-8.8-3.3-17.6-4.7-26.4
				c-0.4-2.7,1.4-5.3,4.2-5.7c2.8-0.4,5.3,1.4,5.7,4.2c1.3,8.6,2.9,17.3,4.6,25.9c0.5,2.7-1.2,5.4-3.9,5.9
				C705.1,2615.6,704.7,2615.7,704.4,2615.7z M696.2,2563.2c-2.5,0-4.7-1.9-5-4.5c-1-8.7-1.8-17.7-2.4-26.7
				c-0.2-2.8,1.9-5.2,4.7-5.3c2.7-0.2,5.2,1.9,5.3,4.7c0.6,8.9,1.4,17.7,2.4,26.3c0.3,2.8-1.7,5.2-4.4,5.5
				C696.6,2563.2,696.4,2563.2,696.2,2563.2z M692.5,2510.2c-2.7,0-4.9-2.2-5-4.9c-0.2-6.8-0.3-13.6-0.3-20.4c0-2.1,0-4.2,0-6.3
				c0-2.8,2.4-5,5.1-5c2.8,0,5,2.3,5,5.1c0,2.1,0,4.2,0,6.2c0,6.7,0.1,13.5,0.3,20.2c0.1,2.8-2.1,5.1-4.9,5.2
				C692.6,2510.2,692.6,2510.2,692.5,2510.2z M693,2457c-0.1,0-0.2,0-0.2,0c-2.8-0.1-4.9-2.5-4.8-5.2c0.4-8.8,0.9-17.8,1.6-26.7
				c0.2-2.8,2.6-4.8,5.4-4.6c2.8,0.2,4.8,2.6,4.6,5.4c-0.7,8.8-1.2,17.6-1.6,26.4C697.9,2454.9,695.6,2457,693,2457z M697.1,2404
				c-0.2,0-0.4,0-0.6,0c-2.8-0.3-4.7-2.8-4.4-5.5c1-8.8,2.1-17.7,3.4-26.5c0.4-2.7,2.9-4.6,5.7-4.3c2.7,0.4,4.6,2.9,4.2,5.7
				c-1.3,8.7-2.4,17.6-3.4,26.2C701.8,2402.1,699.6,2404,697.1,2404z M704.7,2351.4c-0.3,0-0.6,0-0.9-0.1c-2.7-0.5-4.5-3.1-4.1-5.8
				c1.5-8.7,3.3-17.6,5.1-26.3c0.6-2.7,3.3-4.4,5.9-3.9c2.7,0.6,4.4,3.2,3.9,5.9c-1.8,8.6-3.5,17.3-5,25.9
				C709.2,2349.7,707.1,2351.4,704.7,2351.4z M715.6,2299.4c-0.4,0-0.8,0-1.2-0.1c-2.7-0.7-4.3-3.4-3.7-6.1
				c2.1-8.7,4.4-17.4,6.7-25.9c0.7-2.7,3.5-4.2,6.2-3.5c2.7,0.7,4.2,3.5,3.5,6.2c-2.3,8.4-4.5,17-6.6,25.6
				C719.9,2297.9,717.9,2299.4,715.6,2299.4z M729.8,2248.2c-0.5,0-1-0.1-1.5-0.2c-2.6-0.8-4.1-3.6-3.3-6.3c2.6-8.5,5.4-17,8.3-25.4
				c0.9-2.6,3.8-4,6.4-3.1c2.6,0.9,4,3.8,3.1,6.4c-2.9,8.3-5.6,16.7-8.2,25.1C733.9,2246.8,731.9,2248.2,729.8,2248.2z M747.2,2198
				c-0.6,0-1.2-0.1-1.8-0.3c-2.6-1-3.9-3.9-2.9-6.5c3.2-8.4,6.6-16.7,10-24.8c1.1-2.5,4-3.7,6.6-2.7c2.6,1.1,3.7,4,2.7,6.6
				c-3.4,8-6.7,16.2-9.9,24.5C751.1,2196.8,749.2,2198,747.2,2198z M767.9,2149.1c-0.7,0-1.4-0.2-2.1-0.5c-2.5-1.2-3.6-4.2-2.4-6.7
				c3.8-8.1,7.7-16.2,11.8-24.1c1.3-2.5,4.3-3.4,6.7-2.2c2.5,1.3,3.4,4.3,2.2,6.7c-4,7.8-7.9,15.8-11.6,23.7
				C771.6,2148,769.8,2149.1,767.9,2149.1z M1209.5,2123.4c-4.8,0-9.7-0.4-14.4-1.1c-2.7-0.4-4.6-3-4.2-5.7c0.4-2.7,3-4.6,5.7-4.2
				c8.1,1.3,16.6,1.3,25,0.1c2.7-0.4,5.3,1.5,5.7,4.2s-1.5,5.3-4.2,5.7C1218.5,2123.1,1214,2123.4,1209.5,2123.4z M1247.8,2115.3
				c-1.9,0-3.8-1.1-4.6-3.1c-1.1-2.5,0.1-5.5,2.6-6.6c7.5-3.2,15-7.4,22.2-12.5c2.3-1.6,5.4-1.1,7,1.2c1.6,2.3,1.1,5.4-1.2,7
				c-7.8,5.5-15.9,10-24,13.5C1249.1,2115.1,1248.5,2115.3,1247.8,2115.3z M1170.7,2114.3c-0.7,0-1.5-0.2-2.2-0.5
				c-8-3.9-15.8-9.1-23.1-15.3c-2.1-1.8-2.4-5-0.6-7.1c1.8-2.1,5-2.4,7.1-0.6c6.7,5.7,13.8,10.4,21,14c2.5,1.2,3.5,4.2,2.3,6.7
				C1174.3,2113.3,1172.5,2114.3,1170.7,2114.3z M792.2,2101.7c-0.8,0-1.7-0.2-2.4-0.6c-2.4-1.4-3.3-4.4-1.9-6.8
				c4.4-7.8,8.9-15.6,13.6-23.1c1.4-2.4,4.5-3.1,6.9-1.7c2.4,1.4,3.1,4.5,1.7,6.9c-4.6,7.4-9.1,15.1-13.4,22.8
				C795.6,2100.8,793.9,2101.7,792.2,2101.7z M1291.2,2085.1c-1.3,0-2.6-0.5-3.5-1.5c-2-2-2-5.1,0-7.1c5.9-6,11.6-12.6,16.7-19.7
				c1.6-2.2,4.8-2.7,7-1.1c2.2,1.6,2.7,4.8,1.1,7c-5.4,7.5-11.4,14.5-17.7,20.8C1293.8,2084.6,1292.5,2085.1,1291.2,2085.1z
				 M1130.1,2080.6c-1.5,0-2.9-0.6-3.9-1.9c-3.2-4-6.4-8.2-9.4-12.7c-2.1-3.1-4.2-6.4-6.2-9.6c-1.4-2.4-0.7-5.5,1.7-6.9
				c2.4-1.4,5.4-0.7,6.9,1.7c1.9,3.1,3.9,6.2,5.9,9.2c2.9,4.2,5.9,8.3,8.9,12c1.7,2.2,1.4,5.3-0.8,7.1
				C1132.4,2080.2,1131.2,2080.6,1130.1,2080.6z M820,2056.4c-1,0-1.9-0.3-2.8-0.9c-2.3-1.5-2.9-4.7-1.4-7
				c5-7.5,10.2-14.9,15.4-21.9c1.6-2.2,4.8-2.7,7-1.1c2.2,1.6,2.7,4.8,1.1,7c-5.1,7-10.2,14.2-15.2,21.6
				C823.2,2055.6,821.6,2056.4,820,2056.4z M1322.2,2042.2c-0.7,0-1.5-0.2-2.2-0.5c-2.5-1.2-3.5-4.2-2.3-6.7
				c3.7-7.7,6.6-15.7,8.6-24c0.6-2.7,3.4-4.3,6.1-3.7c2.7,0.7,4.3,3.4,3.7,6.1c-2.2,8.9-5.3,17.7-9.3,26
				C1325.8,2041.1,1324.1,2042.2,1322.2,2042.2z M1102.6,2035.3c-1.9,0-3.7-1.1-4.6-2.9c-3.7-8.2-7-16.7-9.9-25.3
				c-0.9-2.6,0.6-5.5,3.2-6.3c2.6-0.9,5.5,0.6,6.3,3.2c2.7,8.2,5.9,16.4,9.5,24.2c1.1,2.5,0,5.5-2.5,6.6
				C1104,2035.1,1103.3,2035.3,1102.6,2035.3z M851.6,2013.5c-1.1,0-2.2-0.4-3.2-1.1c-2.2-1.7-2.5-4.9-0.7-7.1
				c5.6-7,11.5-13.8,17.4-20.4c1.8-2.1,5-2.2,7.1-0.4c2.1,1.8,2.2,5,0.4,7.1c-5.8,6.5-11.5,13.2-17.1,20.1
				C854.5,2012.9,853.1,2013.5,851.6,2013.5z M1334.6,1990.9c0,0-0.1,0-0.1,0c-2.8-0.1-5-2.3-4.9-5.1c0-0.8,0-1.6,0-2.4
				c0-7.7-0.8-15.4-2.3-22.9c-0.6-2.7,1.2-5.4,3.9-5.9c2.7-0.6,5.4,1.2,5.9,3.9c1.7,8.2,2.5,16.6,2.5,25c0,0.9,0,1.7,0,2.6
				C1339.5,1988.7,1337.3,1990.9,1334.6,1990.9z M1086,1984.9c-2.3,0-4.4-1.6-4.9-4c-1.9-8.8-3.3-17.8-4.2-26.8
				c-0.3-2.8,1.7-5.2,4.5-5.5c2.8-0.3,5.2,1.7,5.5,4.5c0.9,8.6,2.3,17.3,4.1,25.7c0.6,2.7-1.2,5.4-3.9,5.9
				C1086.7,1984.9,1086.4,1984.9,1086,1984.9z M887,1973.9c-1.3,0-2.6-0.5-3.5-1.4c-2-1.9-2-5.1,0-7.1c6.3-6.4,12.8-12.6,19.4-18.6
				c2-1.9,5.2-1.7,7.1,0.3c1.9,2,1.7,5.2-0.3,7.1c-6.4,5.8-12.8,12-19,18.2C889.6,1973.4,888.3,1973.9,887,1973.9z M1323.8,1939.3
				c-1.9,0-3.7-1.1-4.5-2.9c-1.5-3.3-3.2-6.5-5.1-9.6c-2.5-4.2-5.2-8.3-8.2-12.2c-1.7-2.2-1.2-5.4,1-7c2.2-1.7,5.4-1.2,7,1
				c3.1,4.2,6.1,8.6,8.8,13.1c2,3.4,3.9,6.9,5.5,10.5c1.2,2.5,0.1,5.5-2.4,6.7C1325.3,1939.2,1324.5,1939.3,1323.8,1939.3z
				 M926.4,1938.2c-1.5,0-2.9-0.6-3.9-1.9c-1.7-2.2-1.4-5.3,0.7-7.1c6.7-5.5,13.7-10.8,20.6-15.8l0.7-0.5c2.2-1.6,5.4-1.1,7,1.1
				c1.6,2.2,1.1,5.4-1.1,7l-0.7,0.5c-6.8,4.9-13.6,10.1-20.1,15.5C928.6,1937.8,927.5,1938.2,926.4,1938.2z M1080.5,1932.1
				L1080.5,1932.1c-2.8,0-5-2.3-5-5c0-8.9,0.5-18,1.4-27c0.3-2.8,2.8-4.8,5.5-4.5c2.8,0.3,4.8,2.7,4.5,5.5c-0.9,8.7-1.3,17.4-1.4,26
				C1085.5,1929.9,1083.3,1932.1,1080.5,1932.1z M969.5,1907.1c-1.7,0-3.3-0.8-4.2-2.3c-1.5-2.3-0.8-5.4,1.6-6.9
				c7.6-4.8,15.4-9.4,23.2-13.6c2.4-1.3,5.5-0.4,6.8,2c1.3,2.4,0.4,5.5-2,6.8c-7.6,4.1-15.2,8.6-22.6,13.3
				C971.3,1906.9,970.4,1907.1,969.5,1907.1z M1292.3,1897c-1.2,0-2.4-0.4-3.4-1.3c-6.2-5.7-13-11-20.3-15.7c-2.3-1.5-3-4.6-1.5-6.9
				c1.5-2.3,4.6-3,6.9-1.5c7.8,5,15.1,10.7,21.7,16.8c2,1.9,2.2,5.1,0.3,7.1C1295,1896.4,1293.6,1897,1292.3,1897z M1016.1,1881.7
				c-1.9,0-3.7-1.1-4.6-2.9c-1.2-2.5-0.1-5.5,2.5-6.7c8.2-3.8,16.5-7.3,24.8-10.4c2.6-1,5.5,0.3,6.5,2.9c1,2.6-0.3,5.5-2.9,6.5
				c-8.1,3.1-16.2,6.5-24.2,10.2C1017.6,1881.6,1016.8,1881.7,1016.1,1881.7z M1085.9,1879.3c-0.3,0-0.7,0-1-0.1
				c-2.7-0.6-4.5-3.2-3.9-5.9c1-5.1,2.2-10.2,3.6-15.3c-5.8,1.4-11.6,3-17.4,4.7c-2.6,0.8-5.4-0.7-6.2-3.4c-0.8-2.7,0.7-5.4,3.4-6.2
				c7.7-2.3,15.6-4.3,23.4-6.1c0.8-2.6,3.6-4,6.2-3.2c2.7,0.8,4.1,3.6,3.3,6.3c-2.6,8.4-4.7,16.9-6.4,25.3
				C1090.4,1877.7,1088.3,1879.3,1085.9,1879.3z M1247.9,1868c-0.7,0-1.4-0.1-2.1-0.4c-7.7-3.5-15.8-6.5-24.3-9
				c-2.7-0.8-4.2-3.6-3.4-6.2c0.8-2.7,3.6-4.2,6.2-3.4c8.9,2.6,17.5,5.8,25.5,9.4c2.5,1.1,3.7,4.1,2.5,6.6
				C1251.7,1866.9,1249.9,1868,1247.9,1868z M1197.2,1852.9c-0.3,0-0.6,0-0.8-0.1c-8.4-1.4-17.1-2.4-25.9-2.9
				c-2.8-0.2-4.9-2.5-4.7-5.3c0.2-2.8,2.5-4.9,5.3-4.7c9.1,0.5,18.2,1.6,26.9,3c2.7,0.5,4.6,3.1,4.1,5.8
				C1201.7,1851.1,1199.6,1852.9,1197.2,1852.9z M1117.7,1851.8c-2.5,0-4.6-1.8-5-4.4c-0.4-2.7,1.6-5.3,4.3-5.6
				c9-1.2,18.1-1.9,26.9-2.3c2.8-0.1,5.1,2.1,5.2,4.8c0.1,2.8-2.1,5.1-4.8,5.2c-8.5,0.3-17.3,1.1-26,2.2
				C1118.2,1851.8,1117.9,1851.8,1117.7,1851.8z M1101.4,1828.6c-0.6,0-1.3-0.1-1.9-0.4c-2.6-1-3.8-4-2.8-6.5
				c3.3-8.2,7.1-16.5,11.2-24.5c1.3-2.5,4.3-3.5,6.7-2.2c2.5,1.3,3.5,4.3,2.2,6.7c-4,7.8-7.6,15.8-10.9,23.8
				C1105.3,1827.4,1103.4,1828.6,1101.4,1828.6z M1125.4,1781.2c-0.9,0-1.8-0.2-2.6-0.7c-2.4-1.4-3.1-4.5-1.7-6.9
				c4.6-7.5,9.6-15.1,14.8-22.5c1.6-2.3,4.7-2.8,7-1.2c2.3,1.6,2.8,4.7,1.2,7c-5.1,7.2-10,14.6-14.4,21.9
				C1128.7,1780.4,1127.1,1781.2,1125.4,1781.2z M1156.3,1738.1c-1.2,0-2.3-0.4-3.3-1.2c-2.1-1.8-2.3-5-0.5-7.1
				c5.9-6.9,12.2-13.5,18.7-19.6c2-1.9,5.2-1.8,7.1,0.2c1.9,2,1.8,5.2-0.2,7.1c-6.2,5.9-12.3,12.2-17.9,18.8
				C1159.1,1737.5,1157.7,1738.1,1156.3,1738.1z M1194.9,1701.8c-1.5,0-3-0.7-4-2c-1.7-2.2-1.2-5.4,1-7c7.1-5.3,14.7-10.4,22.5-15.1
				c2.4-1.4,5.5-0.6,6.9,1.7c1.4,2.4,0.6,5.5-1.7,6.9c-7.5,4.5-14.8,9.3-21.6,14.5C1197,1701.5,1195.9,1701.8,1194.9,1701.8z
				 M1240.3,1674.6c-1.9,0-3.7-1.1-4.5-2.9c-1.2-2.5-0.1-5.5,2.4-6.7c7.9-3.7,16-7.1,24.8-10.5c2.6-1,5.5,0.3,6.5,2.9
				c1,2.6-0.3,5.5-2.9,6.5c-8.6,3.2-16.5,6.6-24.1,10.2C1241.8,1674.4,1241.1,1674.6,1240.3,1674.6z M1290,1655.7
				c-2.1,0-4.1-1.4-4.8-3.5c-0.8-2.6,0.7-5.5,3.3-6.3c7.6-2.4,15.8-4.7,25.7-7.4c2.7-0.7,5.4,0.8,6.2,3.5s-0.8,5.4-3.5,6.2
				c-9.8,2.7-17.8,5-25.4,7.3C1290.9,1655.6,1290.4,1655.7,1290,1655.7z M1341.2,1641.5c-2.2,0-4.3-1.5-4.8-3.7
				c-0.7-2.7,0.9-5.4,3.6-6.1c8.2-2.2,17-4.5,25.5-7c2.7-0.8,5.4,0.7,6.2,3.4c0.8,2.7-0.7,5.4-3.4,6.2c-8.6,2.5-17.5,4.9-25.8,7.1
				C1342,1641.4,1341.6,1641.5,1341.2,1641.5z M1392,1626.1c-2,0-3.9-1.2-4.7-3.2c-1-2.6,0.3-5.5,2.9-6.5
				c8.9-3.3,16.6-6.8,23.6-10.6c2.4-1.3,5.5-0.4,6.8,2c1.3,2.4,0.4,5.5-2,6.8c-7.4,4-15.5,7.7-24.8,11.2
				C1393.2,1626,1392.6,1626.1,1392,1626.1z M1438.2,1600.4c-1.4,0-2.8-0.6-3.8-1.8c-1.8-2.1-1.5-5.3,0.6-7.1
				c6.6-5.6,12.1-11.6,17-18.5c1.6-2.3,4.7-2.8,7-1.2c2.3,1.6,2.8,4.7,1.2,7c-5.3,7.5-11.6,14.3-18.7,20.4
				C1440.5,1600,1439.3,1600.4,1438.2,1600.4z M1468.6,1557.7c-0.6,0-1.3-0.1-1.9-0.4c-2.6-1.1-3.8-4-2.7-6.5
				c3.2-7.7,6.3-15.8,9.4-24.6c0.9-2.6,3.8-4,6.4-3c2.6,0.9,4,3.8,3,6.4c-3.2,9-6.3,17.2-9.6,25
				C1472.5,1556.5,1470.6,1557.7,1468.6,1557.7z M1486.7,1507.7c-0.5,0-1-0.1-1.5-0.2c-2.6-0.8-4.1-3.7-3.2-6.3
				c2.7-8.4,5.3-16.8,7.9-25.3c0.8-2.6,3.6-4.1,6.3-3.3c2.6,0.8,4.1,3.6,3.3,6.3c-2.6,8.5-5.2,17-7.9,25.5
				C1490.7,1506.4,1488.8,1507.7,1486.7,1507.7z M1502.3,1456.9c-0.5,0-1-0.1-1.5-0.2c-2.7-0.8-4.1-3.6-3.3-6.3
				c2.6-8.5,5.2-17,7.9-25.5c0.8-2.6,3.7-4.1,6.3-3.2c2.6,0.8,4.1,3.7,3.2,6.3c-2.7,8.4-5.3,16.9-7.9,25.3
				C1506.4,1455.5,1504.4,1456.9,1502.3,1456.9z M1518.6,1406.3c-0.6,0-1.1-0.1-1.7-0.3c-2.6-0.9-4-3.8-3-6.4c3.2-9,6.3-17.2,9.5-25
				c1-2.6,4-3.8,6.5-2.7c2.6,1,3.8,4,2.7,6.5c-3.2,7.7-6.2,15.8-9.4,24.6C1522.6,1405.1,1520.7,1406.3,1518.6,1406.3z
				 M1538.8,1357.3c-0.7,0-1.5-0.2-2.2-0.5c-2.5-1.2-3.5-4.2-2.3-6.7c4-8.3,8.2-16.3,12.6-23.8c1.4-2.4,4.5-3.2,6.9-1.8
				c2.4,1.4,3.2,4.5,1.8,6.9c-4.2,7.3-8.4,15.1-12.3,23.1C1542.5,1356.2,1540.7,1357.3,1538.8,1357.3z M1565.5,1311.4
				c-1,0-2-0.3-2.9-0.9c-2.3-1.6-2.8-4.7-1.2-7c5.2-7.4,10.7-14.6,16.5-21.4c1.8-2.1,5-2.4,7.1-0.6c2.1,1.8,2.4,5,0.6,7.1
				c-5.6,6.6-10.9,13.5-15.9,20.7C1568.7,1310.6,1567.1,1311.4,1565.5,1311.4z M1599.8,1270.9c-1.3,0-2.6-0.5-3.6-1.5
				c-1.9-2-1.9-5.2,0.1-7.1c4.7-4.6,9.7-9.2,14.8-13.6c1.7-1.5,3.5-3,5.3-4.4c2.1-1.8,5.3-1.5,7.1,0.7c1.8,2.1,1.5,5.3-0.7,7.1
				c-1.7,1.4-3.4,2.9-5.1,4.3c-4.9,4.2-9.8,8.7-14.3,13.2C1602.3,1270.4,1601.1,1270.9,1599.8,1270.9z M1640.7,1237
				c-1.6,0-3.1-0.7-4.1-2.1c-1.6-2.3-1.1-5.4,1.2-7c7.4-5.2,15-10.1,22.7-14.6c2.4-1.4,5.5-0.6,6.9,1.8c1.4,2.4,0.6,5.5-1.8,6.9
				c-7.4,4.4-14.8,9.2-22,14.2C1642.7,1236.7,1641.7,1237,1640.7,1237z M1686.4,1210.1c-1.9,0-3.7-1-4.5-2.8
				c-1.2-2.5-0.2-5.5,2.3-6.7c8.2-3.9,16.5-7.5,24.8-10.6c2.6-1,5.5,0.3,6.5,2.9c1,2.6-0.3,5.5-2.9,6.5c-8,3-16.1,6.5-24,10.3
				C1687.9,1209.9,1687.2,1210.1,1686.4,1210.1z M1736.1,1191.4c-2.2,0-4.2-1.5-4.8-3.7c-0.7-2.7,0.8-5.4,3.5-6.2
				c8.7-2.4,17.6-4.4,26.4-5.9c2.7-0.5,5.3,1.4,5.8,4.1c0.5,2.7-1.4,5.3-4.1,5.8c-8.5,1.5-17,3.4-25.5,5.7
				C1737,1191.4,1736.6,1191.4,1736.1,1191.4z M1788.4,1182.5c-2.6,0-4.8-2-5-4.7c-0.2-2.8,1.9-5.2,4.7-5.4c9-0.6,18.1-0.8,27.1-0.5
				c2.8,0.1,4.9,2.4,4.8,5.2c-0.1,2.8-2.4,4.9-5.2,4.8c-8.6-0.3-17.4-0.1-26,0.5C1788.7,1182.5,1788.6,1182.5,1788.4,1182.5z"/>
			<linearGradient id="SVGID_19_" gradientUnits="userSpaceOnUse" x1="1837.2573" y1="1180.5834" x2="1860.4606" y2="1180.5834">
				<stop  offset="0" style="stop-color:#FFCF68"/>
				<stop  offset="1" style="stop-color:#FFDC8C"/>
			</linearGradient>
			<path class="st22" d="M1855.5,1186.7c-0.3,0-0.7,0-1-0.1c-4.3-0.9-8.6-1.6-12.9-2.2c-2.7-0.4-4.6-2.9-4.2-5.7
				c0.4-2.7,3-4.6,5.7-4.2c4.5,0.6,9,1.4,13.4,2.3c2.7,0.5,4.5,3.2,3.9,5.9C1859.9,1185.1,1857.8,1186.7,1855.5,1186.7z"/>
		</g>
		<g>
			<linearGradient id="SVGID_20_" gradientUnits="userSpaceOnUse" x1="1854.4507" y1="955.1689" x2="1767.5087" y2="1286.217">
				<stop  offset="0" style="stop-color:#FFCBA9"/>
				<stop  offset="1" style="stop-color:#FFE6A9"/>
			</linearGradient>
			<path class="st23" d="M1880.7,1234.9c0,0,19.7,118.3-65.6,142.1c-85.3,23.8-177.2,26.7-197.9,62.9c0,0,6.1-234.4,239.2-239.7
				L1880.7,1234.9z"/>
			<path class="st3" d="M2131.7,1207c0,0,58.8,102,37.8,136c-20,32.3-246.5,172.8-268.6,186.4c-1,0.6-2.3,0.3-2.9-0.6l0,0
				c-5.7-7.8-7.3-17.8-4.4-27c14.1-44.4,57.4-176.6,83.4-212.4C2008.2,1246.1,2131.7,1207,2131.7,1207z"/>
			<path class="st2" d="M1972.7,1466c0.7,0.2,1.5,0.1,2.1-0.3c1.2-0.8,124-79.9,175.5-116c9.2-6.4,13.7-17.7,11.5-28.6
				c-3.4-17.3-11.2-50.9-24.6-81.9c-0.6-1.4-2.2-2-3.6-1.4c-1.4,0.6-2,2.2-1.4,3.6c13.3,30.5,20.9,63.7,24.3,80.8
				c1.8,8.9-1.9,17.9-9.3,23.1c-51.4,36-174.1,115.1-175.3,115.9c-1.3,0.8-1.6,2.5-0.8,3.7C1971.5,1465.5,1972.1,1465.8,1972.7,1466
				z"/>
			<path class="st3" d="M1970.1,986.2c0,0-79.5-86.9-118.2-77.1c-36.8,9.3-239.2,182.7-258.9,199.6c-0.9,0.8-1,2-0.3,3l0,0
				c5.7,7.8,14.7,12.4,24.4,12.4c46.6,0,185.7-1.3,227.6-15.2C1895.4,1092.1,1970.1,986.2,1970.1,986.2z"/>
			<path class="st2" d="M1677.2,1062.1c0.8,0.2,1.7,0,2.4-0.5c1.1-0.9,113.5-94,163.5-132.1c7.2-5.5,17-6.2,24.9-1.9
				c15.3,8.4,44.6,25.7,69.7,47.6c1.1,1,2.8,0.9,3.8-0.3c1-1.1,0.9-2.8-0.3-3.8c-24.2-21.1-51.7-37.9-70.6-48.3
				c-9.8-5.4-21.9-4.5-30.8,2.3c-50,38.2-162.5,131.3-163.6,132.2c-1.2,1-1.3,2.7-0.4,3.8C1676.1,1061.7,1676.6,1062,1677.2,1062.1z
				"/>
			<linearGradient id="SVGID_21_" gradientUnits="userSpaceOnUse" x1="2273.3801" y1="592.8388" x2="2527.5168" y2="-213.0423">
				<stop  offset="0" style="stop-color:#BAFFFF"/>
				<stop  offset="1" style="stop-color:#A9FFFF"/>
			</linearGradient>
			<path class="st24" d="M2449.9,972.2c-33.4,46.5-76.9,93.5-133.4,135.1c-175.4,129.1-326.6,193.7-370.1,210.9
				c-7.9,3.1-16.8,1.6-23.3-3.8c-51.3-42.6-89.9-94.6-115.9-155.8c-4.9-11.5-2.9-24.8,5.1-34.5c34.7-41.8,140.2-161.2,308.7-283.8
				c56.3-40.9,113.8-68.1,167.9-85.9C2377,823.6,2425.5,917.4,2449.9,972.2z"/>
			<linearGradient id="SVGID_22_" gradientUnits="userSpaceOnUse" x1="2624.8137" y1="199.2526" x2="2511.1204" y2="510.2372">
				<stop  offset="0" style="stop-color:#FFCBA9"/>
				<stop  offset="1" style="stop-color:#FFE6A9"/>
			</linearGradient>
			<path class="st25" d="M2288.9,754.3c119.4-39.4,221.7-33.2,255.8-29.5c6.7,0.7,11.2,7,9.9,13.5c-6.8,33.5-31.7,132.3-104.7,233.8
				C2425.5,917.4,2377,823.6,2288.9,754.3z"/>
			<g>
				
					<ellipse transform="matrix(-0.5906 -0.807 0.807 -0.5906 2768.6052 3335.5413)" class="st1" cx="2230.4" cy="965.4" rx="109.6" ry="102.1"/>
				
					<linearGradient id="SVGID_23_" gradientUnits="userSpaceOnUse" x1="-1106.1976" y1="5432.459" x2="-931.4919" y2="5432.459" gradientTransform="matrix(-0.5905 -0.807 -0.807 0.5905 6013.3062 -3068.7915)">
					<stop  offset="0" style="stop-color:#572459"/>
					<stop  offset="1" style="stop-color:#6B386D"/>
				</linearGradient>
				<path class="st26" d="M2179.4,890.8c-36.3,26.5-42.6,79.6-14.1,118.6c28.5,38.9,81,49,117.3,22.4
					c36.3-26.5,42.6-79.6,14.1-118.6C2268.1,874.3,2215.6,864.2,2179.4,890.8z"/>
				<path class="st2" d="M2279.3,1001.7c1,0.3,2.2-0.1,2.8-1c17.3-23.2,17-56.3-0.8-80.6c-4.5-6.1-9.8-11.4-15.9-15.8
					c-1.2-0.9-2.9-0.6-3.8,0.6c-0.9,1.2-0.6,2.9,0.6,3.8c5.6,4,10.6,8.9,14.7,14.6c16.4,22.4,16.8,52.9,0.9,74.2
					c-0.9,1.2-0.7,2.9,0.5,3.8C2278.6,1001.5,2279,1001.6,2279.3,1001.7z"/>
			</g>
			<g>
				
					<ellipse transform="matrix(-0.5906 -0.807 0.807 -0.5906 2407.3118 3394.6875)" class="st1" cx="2064.8" cy="1086.7" rx="72.4" ry="67.5"/>
				
					<linearGradient id="SVGID_24_" gradientUnits="userSpaceOnUse" x1="-1077.609" y1="5638.707" x2="-962.1928" y2="5638.707" gradientTransform="matrix(-0.5905 -0.807 -0.807 0.5905 6013.3062 -3068.7915)">
					<stop  offset="0" style="stop-color:#572459"/>
					<stop  offset="1" style="stop-color:#6B386D"/>
				</linearGradient>
				<path class="st27" d="M2031,1037.4c-24,17.5-28.1,52.6-9.3,78.3c18.8,25.7,53.5,32.4,77.5,14.8c24-17.5,28.1-52.6,9.3-78.3
					C2089.7,1026.5,2055,1019.8,2031,1037.4z"/>
				<path class="st2" d="M2096.8,1111.5c1,0.3,2.2-0.1,2.8-1c11.7-15.6,11.5-38-0.5-54.4c-3-4.1-6.6-7.7-10.7-10.6
					c-1.2-0.9-2.9-0.6-3.8,0.6c-0.9,1.2-0.6,2.9,0.6,3.8c3.6,2.6,6.8,5.8,9.5,9.4c10.6,14.5,10.8,34.2,0.6,47.9
					c-0.9,1.2-0.7,2.9,0.5,3.8C2096.2,1111.3,2096.5,1111.4,2096.8,1111.5z"/>
			</g>
		</g>
		<g>
			<linearGradient id="SVGID_25_" gradientUnits="userSpaceOnUse" x1="1788.2551" y1="3092.1497" x2="1250.5649" y2="3677.0063">
				<stop  offset="0" style="stop-color:#572459"/>
				<stop  offset="1" style="stop-color:#6B386D"/>
			</linearGradient>
			<path class="st28" d="M1618.3,3135.7c0,0-5.6,31.5-8.3,62.7c-1.1,12.2,8.3,22.8,20.6,23.3c41.6,1.7,130.4,5.1,162.3,3.7
				c4.8-0.2,7.9-5.1,6.2-9.6c-1.5-3.7-4.4-6.8-8-8.4l-146.8-67.5L1618.3,3135.7z"/>
			<linearGradient id="SVGID_26_" gradientUnits="userSpaceOnUse" x1="1613.7291" y1="3135.5881" x2="1661.4895" y2="3135.5881">
				<stop  offset="0" style="stop-color:#C9B07E"/>
				<stop  offset="1" style="stop-color:#AB6600"/>
			</linearGradient>
			<path class="st29" d="M1613.7,3117.2l4.5,37.7c0,0,25.7,12,43.3-1.5l-10.7-42L1613.7,3117.2z"/>
			<linearGradient id="SVGID_27_" gradientUnits="userSpaceOnUse" x1="1500.4784" y1="2770.3979" x2="1658.3975" y2="2770.3979">
				<stop  offset="0" style="stop-color:#572459"/>
				<stop  offset="1" style="stop-color:#6B386D"/>
			</linearGradient>
			<path class="st30" d="M1617.1,2408.3c-1.9,9.8-10.4,491.4,41.1,707.2c0.8,3.5-0.9,7.1-4.3,8.5c-7.9,3.2-23.4,7.9-41.9,8.5
				c-5.7,0.2-10.9-3.5-12.5-9.1c-14.7-50.1-85.2-300.9-94.4-540.5c-10.3-267.8,0-9.1,0-9.1l6-165.5L1617.1,2408.3z"/>
			<linearGradient id="SVGID_28_" gradientUnits="userSpaceOnUse" x1="1667.6332" y1="2981.2556" x2="1129.9435" y2="3566.1118">
				<stop  offset="0" style="stop-color:#572459"/>
				<stop  offset="1" style="stop-color:#6B386D"/>
			</linearGradient>
			<path class="st31" d="M1449.4,3152.2c0,0-8.9,15.9-17.4,58.2c-1.5,7.6,3.8,14.9,11.5,15.7c13.7,1.3,34.8,3.1,51.8,3
				c7.8-0.1,13.9-6.8,12.9-14.6c-1.9-15.4-7.7-40.8-25.8-60.5L1449.4,3152.2z"/>
			<linearGradient id="SVGID_29_" gradientUnits="userSpaceOnUse" x1="1441.6021" y1="3133.1387" x2="1482.8386" y2="3133.1387">
				<stop  offset="0" style="stop-color:#C9B07E"/>
				<stop  offset="1" style="stop-color:#AB6600"/>
			</linearGradient>
			<path class="st32" d="M1441.6,3103.7l10.5,57c0,0,10.3,7.7,30.8,2.1l-5-61.4L1441.6,3103.7z"/>
			<linearGradient id="SVGID_30_" gradientUnits="userSpaceOnUse" x1="1397.1552" y1="2765.2307" x2="1621.3494" y2="2765.2307">
				<stop  offset="0" style="stop-color:#572459"/>
				<stop  offset="1" style="stop-color:#6B386D"/>
			</linearGradient>
			<path class="st33" d="M1413.4,2423.1c-42.1,254.1,9.1,627.9,26.4,701.1c1.1,4.5,4.7,7.9,9.2,8.7c7.7,1.3,20.4,2.3,32.9-1.3
				c4.3-1.3,7.3-5.1,7.5-9.6c2.3-59.2-1.9-422.4,37.4-565.9c2-7.3,6.4-13.6,12.6-18l76.1-54.1l5.8-87.5L1413.4,2423.1z"/>
			<g>
				<linearGradient id="SVGID_31_" gradientUnits="userSpaceOnUse" x1="2048.6099" y1="1451.8737" x2="1817.8916" y2="1777.8892">
					<stop  offset="0" style="stop-color:#FFCBA9"/>
					<stop  offset="1" style="stop-color:#FFE6A9"/>
				</linearGradient>
				<path class="st34" d="M1681.6,1941.7c-126.2-2.1-265.4,33.1-265.4,33.1c-37.6,219.4-6.6,472.5-6.6,472.5
					c97.7,25.6,207.8-15.7,207.8-15.7c16.2-91.7,92-349.8,92-349.8c61.6-7.7,112.4-25.4,154.2-48.9c-31.9-37-46.9-84-53.5-111.8
					C1765.7,1934.9,1720.5,1942.3,1681.6,1941.7z"/>
				<linearGradient id="SVGID_32_" gradientUnits="userSpaceOnUse" x1="1810.2621" y1="1889.5834" x2="2054.2605" y2="1889.5834">
					<stop  offset="0" style="stop-color:#C9B07E"/>
					<stop  offset="1" style="stop-color:#AB6600"/>
				</linearGradient>
				<path class="st35" d="M2054.3,1755.8c-12.4-15-28.1-7.9-28.1-7.9c-18.6,78.4-115.9,142-215.9,173.1
					c6.5,27.8,21.6,74.9,53.5,111.8C2029.7,1939.6,2054.3,1755.8,2054.3,1755.8z"/>
			</g>
			<g>
				
					<linearGradient id="SVGID_33_" gradientUnits="userSpaceOnUse" x1="8447.873" y1="1848.6836" x2="8611.6016" y2="2221.2041" gradientTransform="matrix(-1 0 0 1 10447.7783 0)">
					<stop  offset="0" style="stop-color:#C9B07E"/>
					<stop  offset="1" style="stop-color:#AB6600"/>
				</linearGradient>
				<path class="st36" d="M2051.3,1759.7c1.3,4.1-13.7,10.4-22.6-6.5c-0.3-8.1-5.2-42.7-0.4-49.3c25.7-35.1,75.6-79,75.6-79
					c8.4,8.3,1.5,16.5,1.5,16.5l-24.2,25.2c5.1,9.1,11.2,16.9,14.1,27.9c2.2,8.4,0.9,17.3-3.4,24.9c-4.2,7.6-10,17.6-15.5,25.4
					C2066,1759.5,2051.3,1759.7,2051.3,1759.7z"/>
				<linearGradient id="SVGID_34_" gradientUnits="userSpaceOnUse" x1="2053.0894" y1="1724.6208" x2="2121.4065" y2="1619.583">
					<stop  offset="0" style="stop-color:#C9B07E"/>
					<stop  offset="1" style="stop-color:#AB6600"/>
				</linearGradient>
				<path class="st37" d="M2070.6,1682.9l-22,18.7l-6.9,18.6l19.7,21.8c0,0,6.6-36.9,11.5-44.9
					C2077.7,1689.1,2075.2,1685.3,2070.6,1682.9z"/>
			</g>
			<linearGradient id="SVGID_35_" gradientUnits="userSpaceOnUse" x1="1908.7828" y1="1352.9194" x2="1678.0646" y2="1678.9348">
				<stop  offset="0" style="stop-color:#FFCBA9"/>
				<stop  offset="1" style="stop-color:#FFE6A9"/>
			</linearGradient>
			<path class="st38" d="M1464.6,2097l-48.4-122.2c0,0-117.8,80.1-137.2,181.6c22.3,1.6,62.8,7.4,102.4,27.5
				C1390.2,2135.9,1464.6,2097,1464.6,2097z"/>
			<linearGradient id="SVGID_36_" gradientUnits="userSpaceOnUse" x1="1276.3431" y1="2235.2004" x2="1585.1252" y2="2235.2004">
				<stop  offset="0" style="stop-color:#C9B07E"/>
				<stop  offset="1" style="stop-color:#AB6600"/>
			</linearGradient>
			<path class="st39" d="M1567.6,2211.9c0,0-132.3,74.8-176.9,10.9c-9.3-13.3-11.5-26.4-9.2-39c-39.7-20-80.2-25.8-102.4-27.5
				c-5.8,30.6-2.8,63.2,15.2,96c78.2,143,290.9-7.9,290.9-7.9L1567.6,2211.9z"/>
			<g>
				<linearGradient id="SVGID_37_" gradientUnits="userSpaceOnUse" x1="1611.6519" y1="2304.699" x2="1875.4294" y2="1841.8893">
					<stop  offset="0" style="stop-color:#BAFFFF"/>
					<stop  offset="1" style="stop-color:#A9FFFF"/>
				</linearGradient>
				<path class="st40" d="M1551.7,2306.5l72.2-252.2c0.8-2.9,3.3-5,6.2-5.3c13.1-1.5,51-5.8,94.8-9.5c52.7-4.5,113.9-8.1,150.5-5
					c5.2,0.4,8.3,5.9,6,10.6c-20.8,42.1-106.4,213.3-149.2,269.4c-1.4,1.9-3.6,2.9-6,2.9l-167.5-1.6
					C1553.9,2315.9,1550.4,2311.2,1551.7,2306.5z"/>
				<path class="st1" d="M1732.4,2017.7l52.4-8.7c2.8-0.5,5.1,2.2,4.2,4.9l-5.2,15.7c-0.5,1.4-1.6,2.4-3.1,2.5l-50.4,6.7
					c-2.6,0.3-4.8-2-4.2-4.6l3.2-13.7C1729.7,2019,1730.9,2017.9,1732.4,2017.7z"/>
				<path class="st1" d="M1693.2,2062l4.3-22.5c0.4-2.3,2.3-4,4.6-4.2l105.7-10.7c3.6-0.4,6.4,2.9,5.6,6.4l-6.7,28
					c-0.5,2.2-2.5,3.9-4.8,4l-103.3,5.2C1695.2,2068.3,1692.6,2065.3,1693.2,2062z"/>
				<linearGradient id="SVGID_38_" gradientUnits="userSpaceOnUse" x1="1562.1995" y1="2202.8247" x2="1658.3976" y2="2202.8247">
					<stop  offset="0" style="stop-color:#C9B07E"/>
					<stop  offset="1" style="stop-color:#AB6600"/>
				</linearGradient>
				<path class="st41" d="M1569.2,2245.6c0,0-10.1-41.4-6-56c4.1-14.7,11.9-33.5,38.1-29.3c26.2,4.2,57.1,15.2,57.1,15.2
					s-1.6,19.1-21.5,12.9l12.3,9.6c0,0-1.8,15.3-18.6,7.1l11.5,12.7c0,0-7.2,12.6-19.6,4.5
					C1610.2,2214.2,1604.3,2250.6,1569.2,2245.6z"/>
			</g>
			<linearGradient id="SVGID_39_" gradientUnits="userSpaceOnUse" x1="1513.4447" y1="1905.0936" x2="1635.5272" y2="1905.0936">
				<stop  offset="0" style="stop-color:#C9B07E"/>
				<stop  offset="1" style="stop-color:#AB6600"/>
			</linearGradient>
			<path class="st42" d="M1553.8,1839.3l-40.1,116.1c-0.7,1.9,0.1,4.1,1.9,5c10.9,6,50.4,23.5,97.9-6.6c4.9-3.1,8.3-8.3,9.1-14.1
				l13-100.5H1553.8z"/>
			<g>
				
					<linearGradient id="SVGID_40_" gradientUnits="userSpaceOnUse" x1="-4334.4639" y1="-342.7883" x2="-4380.0845" y2="-493.2564" gradientTransform="matrix(0.746 -0.6659 0.6659 0.746 5126.3354 -803.1727)">
					<stop  offset="0" style="stop-color:#C9B07E"/>
					<stop  offset="1" style="stop-color:#AB6600"/>
				</linearGradient>
				<path class="st43" d="M1641.2,1731.8c0,0,44.1,83,38.4,116.5c-5.7,33.5-60.3,31.1-108,3.9l-33.3-89.6L1641.2,1731.8z"/>
				
					<linearGradient id="SVGID_41_" gradientUnits="userSpaceOnUse" x1="-4375.6226" y1="-604.9564" x2="-4337.4609" y2="-387.2948" gradientTransform="matrix(0.746 -0.6659 0.6659 0.746 5126.3354 -803.1727)">
					<stop  offset="0" style="stop-color:#572459"/>
					<stop  offset="1" style="stop-color:#6B386D"/>
				</linearGradient>
				<path class="st44" d="M1573.7,1808.1c1.9-0.9,2.7-3.2,1.5-5c-3.5-5.4-10.2-16.4-12.3-26c0,0-7.9-5.1,20.2-11.8
					c28.1-6.7,70-17.2,78.8-41.1c8.6-23.3-14-81.9-50-35.2c-1.4,1.8-4.1,1.8-5.4,0c-5.9-7.7-21.4-23.6-42.9-14
					c-20.2,9-22.4,23.8-22.1,31.3c0.1,2.2-1.9,3.9-4,3.5c-10.2-1.9-34.6-3.6-46.1,21.5c-9.4,20.7-3.3,32.4,2.3,38.1
					c1.8,1.9,1,4.9-1.5,5.7c-6.7,2-15.3,7.7-14.5,23.4c1.2,21.7,25.4,19.8,32.3,18.8c1.1-0.2,2.3,0.2,3,1.1
					c5.9,6.6,32.6,34.4,61.5,37.7c2.5,0.3,4.4-2.2,3.6-4.6l-12.5-36.3c-0.6-1.7,0.2-3.5,1.9-4.3L1573.7,1808.1z"/>
				
					<linearGradient id="SVGID_42_" gradientUnits="userSpaceOnUse" x1="-4381.0991" y1="-343.488" x2="-4422.145" y2="-478.868" gradientTransform="matrix(0.746 -0.6659 0.6659 0.746 5126.3354 -803.1727)">
					<stop  offset="0" style="stop-color:#C9B07E"/>
					<stop  offset="1" style="stop-color:#AB6600"/>
				</linearGradient>
				<path class="st45" d="M1578.7,1813.3c0,0-31.4-21.5-33.7-3.4c-2.3,18.1,28.3,26.3,43.4,19.5L1578.7,1813.3z"/>
			</g>
		</g>
	</g>
</g>
</svg>
