<?xml version="1.0" encoding="utf-8"?>
<!-- Generator: Adobe Illustrator 19.0.0, SVG Export Plug-In . SVG Version: 6.00 Build 0)  -->
<svg version="1.1" id="Camada_1" xmlns="http://www.w3.org/2000/svg" xmlns:xlink="http://www.w3.org/1999/xlink" x="0px" y="0px"
	 viewBox="1375 -1575 3710 3710" style="enable-background:new 1375 -1575 3710 3710;" xml:space="preserve">
<style type="text/css">
	.st0{fill:url(#SVGID_1_);}
	.st1{fill:#D4A1D8;}
	.st2{fill:#FFFFFF;}
	.st3{fill:#AD7AB2;}
	.st4{fill:url(#SVGID_2_);}
	.st5{fill:url(#SVGID_3_);}
	.st6{opacity:0.78;fill:#FFFFFF;enable-background:new    ;}
	.st7{fill:url(#SVGID_4_);}
	.st8{fill:url(#SVGID_5_);}
	.st9{fill:url(#SVGID_6_);}
	.st10{fill:url(#SVGID_7_);}
	.st11{fill:url(#SVGID_8_);}
	.st12{fill:url(#SVGID_9_);}
	.st13{fill:url(#SVGID_10_);}
	.st14{fill:url(#SVGID_11_);}
	.st15{fill:url(#SVGID_12_);}
	.st16{fill:url(#SVGID_13_);}
	.st17{fill:url(#SVGID_14_);}
	.st18{fill:url(#SVGID_15_);}
	.st19{fill:url(#SVGID_16_);}
	.st20{fill:url(#SVGID_17_);}
	.st21{fill:url(#SVGID_18_);}
	.st22{fill:url(#SVGID_19_);}
	.st23{fill:url(#SVGID_20_);}
	.st24{fill:url(#SVGID_21_);}
	.st25{fill:url(#SVGID_22_);}
	.st26{fill:url(#SVGID_23_);}
	.st27{fill:url(#SVGID_24_);}
	.st28{fill:url(#SVGID_25_);}
	.st29{fill:url(#SVGID_26_);}
	.st30{fill:url(#SVGID_27_);}
	.st31{fill:url(#SVGID_28_);}
	.st32{fill:url(#SVGID_29_);}
	.st33{fill:url(#SVGID_30_);}
	.st34{fill:url(#SVGID_31_);}
	.st35{fill:url(#SVGID_32_);}
	.st36{fill:url(#SVGID_33_);}
	.st37{fill:url(#SVGID_34_);}
	.st38{fill:url(#SVGID_35_);}
	.st39{fill:url(#SVGID_36_);}
	.st40{fill:url(#SVGID_37_);}
	.st41{fill:url(#SVGID_38_);}
	.st42{fill:url(#SVGID_39_);}
	.st43{fill:url(#SVGID_40_);}
	.st44{fill:url(#SVGID_41_);}
	.st45{fill:url(#SVGID_42_);}
</style>
<g id="Background">
</g>
<g id="Illustration">
	<g>
		
			<linearGradient id="SVGID_1_" gradientUnits="userSpaceOnUse" x1="4954.7236" y1="-1902.8231" x2="2493.1899" y2="1154.2462" gradientTransform="matrix(1 0 0 -1 0 560)">
			<stop  offset="0" style="stop-color:#FFFFFF"/>
			<stop  offset="1" style="stop-color:#FFFFFF"/>
		</linearGradient>
		<path class="st0" d="M4277.5,1257.2c-56.5,59.5-110,97.9-152.3,128.2C3628.4,1742,3040.5,1638,2915.5,1612.7
			c-184.5-37.5-541.2-109.9-799-413.1C1726.4,740.8,1787.2,18,2089.8-459.1c55.3-87.3,347.7-571.6,942-649.3
			c359.6-47,778.8,47.8,1082.4,302.1C4751.4-272.4,4706,806.2,4277.5,1257.2z"/>
		<g>
			<g>
				<g>
					<path class="st1" d="M1885.6-478.5c-1.5-0.6-2.7-2-2.8-3.7c-0.4-5.6-0.7-11.4-0.9-17.1c-0.1-2.3,1.8-4.3,4.2-4.3
						c5.8-0.1,4.2,5.6,5.3,20.9c0.2,2.3-1.6,4.3-4,4.5C1886.8-478.1,1886.2-478.2,1885.6-478.5z"/>
					<path class="st1" d="M1883.6-552.4c1.1-10.8,2.6-21.7,4.5-32.4c0.4-2.3,2.6-3.8,5-3.4c6.4,1.2,2.2,4.8-0.9,36.7
						c-0.2,2.3-2.3,4-4.7,3.7C1885.1-548,1883.4-550.1,1883.6-552.4z M1900.8-636.4c3.3-10.4,7-20.9,11-30.8c2.1-5.3,10.1-1.9,8,3.2
						c-4,9.9-7.6,20-10.8,30.1c-0.7,2.2-3.1,3.4-5.4,2.7C1901.3-631.8,1900.1-634.2,1900.8-636.4z M1934.9-715
						c5.3-9.4,11.1-18.8,17.2-27.8c3.1-4.6,10.3,0.1,7.2,4.8c-6,8.8-11.6,18-16.9,27.2C1939.7-705.9,1932.1-710.1,1934.9-715z
						 M1985.2-778.9c-1.8-1.5-2-4.2-0.5-6c7.2-8.1,14.9-16.1,22.7-23.7c4-3.9,10.1,2.2,6.1,6.1c-7.7,7.4-15.2,15.2-22.3,23.2
						C1989.7-777.5,1987-777.3,1985.2-778.9z M2047.4-837.1c-1.5-1.9-1.1-4.5,0.8-5.9c8.8-6.5,17.9-12.8,27.2-18.6
						c4.8-3,9.5,4.2,4.7,7.2c-9.1,5.7-18.1,11.8-26.7,18.2C2051.5-834.8,2048.8-835.2,2047.4-837.1z M2122.9-879.3
						c-1-0.4-1.9-1.1-2.4-2.2c-1-2.1-0.1-4.6,2-5.6c10-4.6,20.2-8.9,30.5-12.7c2.2-0.8,4.7,0.3,5.6,2.5c0.9,2.2-0.2,4.6-2.4,5.4
						c-10.1,3.7-20.2,7.9-29.9,12.5C2125.2-878.9,2124-878.9,2122.9-879.3z M2204.1-907.2c-1.3-0.5-2.3-1.6-2.7-3
						c-0.6-2.3,0.8-4.6,3.1-5.1c10.7-2.5,21.7-4.6,32.6-6.3c2.3-0.4,4.6,1.2,5,3.5c0.4,2.3-1.2,4.5-3.5,4.8
						c-10.7,1.6-21.4,3.7-31.9,6.2C2205.8-906.9,2204.9-906.9,2204.1-907.2z M2286.9-922.1c-0.1-2.3,1.7-4.3,4.1-4.3
						c11-0.3,22.3-0.2,33.3,0.4c5.7,0.3,5.4,8.7-0.3,8.4c-10.8-0.6-21.8-0.7-32.7-0.4C2289-917.9,2287-919.7,2286.9-922.1z
						 M2562.7-830.2c-25.8-19.7-31.6-19.4-28-24.7c1.3-1.9,3.9-2.5,5.9-1.2c9.3,6,18.5,12.5,27.3,19.2
						C2572.4-833.4,2567.2-826.7,2562.7-830.2z M2373.3-916.5c0.4-2.3,2.6-3.8,4.9-3.4c10.9,1.9,21.9,4.3,32.7,7.1
						c5.5,1.4,3.5,9.6-2.1,8.2c-10.5-2.7-21.3-5-32-6.9C2374.5-912,2372.9-914.2,2373.3-916.5z M2489.5-875.1
						c-29.2-14.1-34.9-12.7-32.5-18.6c1.5-3.8,6.1-2.4,5.6-2.3c10.4,4.1,20.7,8.6,30.6,13.4c2.1,1,3.1,3.6,2,5.7
						C2494.3-875,2491.8-874,2489.5-875.1z"/>
					<path class="st1" d="M2614.8-783c-9.9-10.6-16-14.1-11.9-18.2c1.7-1.6,4.4-1.6,6.1,0.1c10.7,10.5,16,14.7,11.9,18.4
						C2619.6-781.6,2616.4-781.3,2614.8-783z"/>
				</g>
				<g>
					<path class="st1" d="M2729.9-474.7c-1.7-0.7-2.9-2.3-2.8-4.2c0.3-5.6,0.5-11.2,0.6-16.7c0-2.3,2-4.2,4.4-4.1
						c2.4,0.1,4.3,2,4.3,4.3c-0.1,5.7-0.3,11.4-0.6,17.1c-0.1,2.3-2.2,4.1-4.5,3.9C2730.7-474.4,2730.3-474.5,2729.9-474.7z"/>
					<path class="st1" d="M2149.5-119.4c-11.1-4.5-22.1-9.6-32.7-15c-2.1-1.1-3-3.6-1.9-5.7c3-5.8,5.4-0.4,37.8,12.9
						c2.2,0.9,3.3,3.4,2.4,5.5C2153.5-117.9,2148.9-119.4,2149.5-119.4z M2201.8-106c1.6-6.3,5.4-1.5,39.7,4.6
						c2.4,0.4,3.9,2.6,3.5,4.9s-2.6,3.8-4.9,3.4c-11.7-2.1-23.5-4.7-35.1-7.7C2202.6-101.5,2201.2-103.8,2201.8-106z M2066.5-164.3
						c-9.8-6.8-19.5-14.1-28.7-21.7c-1.8-1.5-2.1-4.2-0.6-6c4.3-5,5.4,0.8,34.2,20.7c2,1.4,2.5,4,1.1,5.9
						C2071.2-163.4,2068.5-163,2066.5-164.3z M2296.7-87.1c-1.7-0.6-2.9-2.3-2.8-4.1c0.1-2.3,2-4.1,4.4-4.1
						c11.7,0.5,23.5,0.5,35.2,0c2.4-0.1,4.4,1.7,4.5,4c0.1,2.3-1.7,4.3-4,4.4c-11.9,0.5-24,0.5-35.9,0
						C2297.6-86.9,2297.1-87,2296.7-87.1z M2389.4-93.5c-1.4-0.5-2.4-1.7-2.7-3.2c-0.5-2.3,1.1-4.5,3.4-4.9
						c11.4-2.1,22.9-4.6,34.2-7.6c2.3-0.6,4.7,0.7,5.3,3c0.7,2.3-0.7,4.6-2.9,5.2c-11.5,3.1-23.2,5.7-34.9,7.8
						C2390.9-93.2,2390.1-93.2,2389.4-93.5z M2478.2-119.8c-1.1-0.4-2-1.2-2.4-2.3c-1-2.2,0-4.6,2.2-5.5
						c10.7-4.5,21.3-9.5,31.6-14.8c2.1-1.1,4.7-0.3,5.8,1.8c1.1,2.1,0.4,4.6-1.7,5.7c-10.5,5.5-21.3,10.5-32.2,15.1
						C2480.4-119.4,2479.2-119.4,2478.2-119.8z M2558.7-164.5c-0.8-0.3-1.5-0.8-2-1.5c-1.4-1.9-1-4.5,0.9-5.9
						c9.4-6.7,18.6-13.8,27.4-21.3c1.8-1.5,4.5-1.3,6.1,0.5c1.6,1.8,1.4,4.4-0.4,6c-9,7.6-18.4,14.9-28,21.7
						C2561.6-164.1,2560-164,2558.7-164.5z M2625.8-226.4c-5-4.4,0.9-5.3,21.5-32.7c3.4-4.5,10.3,0.6,7,5.1
						c-7,9.4-14.5,18.5-22.4,27.3C2630.4-225,2627.6-224.8,2625.8-226.4z M2679.5-300.4c-5.9-3.2-0.3-5.3,13.5-36.6
						c2.3-5.1,10.2-1.6,7.9,3.5c-4.7,10.7-10,21.3-15.6,31.5C2684.2-300,2681.5-299.3,2679.5-300.4z M2714.7-384.6
						c-2.1-0.8-3.3-3-2.6-5.1c3.2-11.1,5.9-22.3,8.1-33.5c0.4-2.3,2.7-3.8,5-3.3s3.9,2.7,3.4,5c-2.2,11.4-5,22.9-8.2,34.2
						c-0.6,2.2-3,3.5-5.3,2.9C2715-384.5,2714.9-384.5,2714.7-384.6z"/>
					<path class="st1" d="M1995.3-226.1c-10.2-11-15.3-15.4-11-18.9c4.4-3.7,6.9,2,17.4,13.3c1.6,1.7,1.5,4.4-0.2,6
						C1999.6-224.3,1996.9-224.4,1995.3-226.1z"/>
				</g>
				<g>
					<path class="st1" d="M2042.3-333.1l61.2-7.6c18.6,21.9,40.9,41.1,66.3,56.6c2.4,59-1.6,63.3,4.7,65.4l70.5,23.5
						c2.1,0.7,4.3,0,5.6-1.7l37.1-47.9c29.6,2.9,58.9,0.8,86.9-5.5l44.5,42.8c1.6,1.5,3.9,1.9,5.8,0.9l66-32.1c1.9-0.9,3-3,2.7-5.1
						L2485-304c22-18,41.2-39.6,56.6-64.4l61.7-0.2c2.2,0,4.1-1.4,4.7-3.4l22.8-68.9c0.7-2,0-4.2-1.8-5.5l-49.3-37.2
						c2.5-29,0-57.9-7-85.5c41-43,46.7-43,43.7-48.8c-34.2-63.5-32.2-68.9-38.9-68.1l-61.2,7.6c-18.6-21.9-40.9-41.1-66.3-56.6
						c-2.4-58.9,1.6-63.3-4.7-65.4c-70.4-22.1-72.1-27-76.1-21.8l-37.1,47.9c-29.6-2.9-58.9-0.8-86.9,5.5
						c-43.8-40.4-44.4-46.6-50.3-43.7c-64.7,33-69.6,30.7-68.7,37.2l8.6,60.2c-22,18-41.2,39.6-56.6,64.4
						c-58.9,1.4-64.4-2.7-66.5,3.6c-21.4,68.6-26.4,70.5-21.1,74.5l49.3,37.2c-2.5,29,0,57.9,7,85.5c-40.8,42.8-46.7,43-43.7,48.8
						C2037.6-337.7,2035.6-332.3,2042.3-333.1z"/>
					<g>
						<path class="st2" d="M2237.9-515.4c2.6-39,37.1-68.2,76.9-65c39.7,3.2,70,37.5,67.3,76.5c-2.6,39-37.1,68.2-76.9,65l0,0
							C2265.4-442,2235.2-476.4,2237.9-515.4z M2305.6-445.2L2305.6-445.2L2305.6-445.2z M2313.9-567.8
							c-32.3-2.6-60.9,20.9-63.1,53.4c-2.2,32.1,22.7,60.3,55.3,62.9c32.6,2.6,61-21.4,63.1-53.4
							C2371.3-537.1,2346.5-565.2,2313.9-567.8z"/>
					</g>
					<path class="st2" d="M2247.1-340.6L2247.1-340.6c-10-3.8-19.7-8.4-28.9-13.8c-2.8-1.6-3.9-4.9-2.8-7.7c0.1-0.3,0.3-0.7,0.5-1
						c1.8-3,5.7-4,8.8-2.2c10.5,6.2,21.8,11.3,33.5,15.2l0,0c88.2,29.4,182.9-15,214.7-99.2c0.8-2.2,1.6-4.3,2.3-6.5
						c29.5-89-20.6-184.9-110.9-215c-90.1-30-187.6,17-217.1,105.7c-17.5,52.8-2.2,88.3-4.3,93.7c-2.2,5.9-10.9,5.2-12.3-0.9
						c-7.8-33.5-6.1-69.7,6.8-103.9c55.7-147.5,265.6-156.5,338.7-14.6c22.5,43.6,26.5,93,11.3,139.1c-0.8,2.4-1.6,4.7-2.5,7.1
						c-16.2,42.8-47.7,77.3-89.5,97.6c-44.1,21.5-94.3,24.7-141.3,9C2251.8-338.9,2249.4-339.7,2247.1-340.6z"/>
				</g>
			</g>
			<g>
				<g>
					<path class="st1" d="M2607.5-788.1c-0.9-0.4-1.6-1.2-1.7-2.2c-0.3-3.4-0.4-6.9-0.6-10.4c0-1.4,1.1-2.6,2.5-2.6
						c3.5-0.1,2.5,3.4,3.2,12.7c0.1,1.4-1,2.6-2.4,2.7C2608.2-787.9,2607.8-787.9,2607.5-788.1z"/>
					<path class="st1" d="M2606.3-832.9c0.6-6.6,1.6-13.2,2.7-19.7c0.2-1.4,1.6-2.3,3-2c3.9,0.7,1.3,2.9-0.5,22.3
						c-0.1,1.4-1.4,2.4-2.8,2.3C2607.2-830.3,2606.1-831.5,2606.3-832.9z M2616.7-883.9c2-6.3,4.3-12.7,6.7-18.7
						c1.3-3.2,6.1-1.1,4.9,2c-2.4,6-4.6,12.1-6.6,18.3c-0.4,1.3-1.9,2.1-3.3,1.6C2617-881.1,2616.3-882.5,2616.7-883.9z
						 M2637.4-931.5c3.2-5.7,6.8-11.4,10.4-16.9c1.9-2.8,6.3,0.1,4.4,2.9c-3.6,5.4-7.1,10.9-10.2,16.5
						C2640.3-926,2635.7-928.6,2637.4-931.5z M2667.9-970.3c-1.1-0.9-1.2-2.6-0.3-3.6c4.4-4.9,9-9.8,13.8-14.4
						c2.5-2.4,6.1,1.3,3.7,3.7c-4.7,4.5-9.2,9.2-13.5,14.1C2670.6-969.5,2669-969.4,2667.9-970.3z M2705.6-1005.6
						c-0.9-1.1-0.7-2.7,0.5-3.6c5.3-3.9,10.9-7.7,16.5-11.3c2.9-1.8,5.7,2.5,2.9,4.3c-5.5,3.5-11,7.2-16.2,11
						C2708.1-1004.2,2706.5-1004.5,2705.6-1005.6z M2751.4-1031.2c-0.6-0.2-1.1-0.7-1.4-1.3c-0.6-1.3-0.1-2.8,1.2-3.4
						c6-2.8,12.3-5.4,18.5-7.7c1.3-0.5,2.9,0.2,3.4,1.5c0.5,1.3-0.1,2.8-1.5,3.3c-6.1,2.3-12.2,4.8-18.2,7.6
						C2752.8-1031,2752.1-1031,2751.4-1031.2z M2800.7-1048.2c-0.8-0.3-1.4-0.9-1.6-1.8c-0.4-1.4,0.5-2.8,1.9-3.1
						c6.5-1.5,13.2-2.8,19.8-3.8c1.4-0.2,2.8,0.7,3,2.1c0.2,1.4-0.7,2.7-2.1,2.9c-6.5,1-13,2.3-19.4,3.7
						C2801.7-1047.9,2801.2-1048,2800.7-1048.2z M2850.9-1057.2c-0.1-1.4,1.1-2.6,2.5-2.6c6.7-0.2,13.5-0.1,20.2,0.3
						c3.5,0.2,3.3,5.3-0.2,5.1c-6.6-0.3-13.2-0.4-19.8-0.2C2852.2-1054.6,2851-1055.8,2850.9-1057.2z M3018.2-1001.4
						c-15.6-11.9-19.2-11.7-17-15c0.8-1.2,2.4-1.5,3.6-0.7c5.6,3.7,11.2,7.6,16.6,11.7C3024.1-1003.4,3021-999.3,3018.2-1001.4z
						 M2903.3-1053.8c0.2-1.4,1.6-2.3,3-2.1c6.6,1.2,13.3,2.6,19.8,4.3c3.4,0.9,2.1,5.8-1.2,5c-6.4-1.6-12.9-3.1-19.4-4.2
						C2904-1051,2903.1-1052.4,2903.3-1053.8z M2973.8-1028.7c-17.7-8.6-21.1-7.7-19.7-11.3c0.9-2.3,3.7-1.4,3.4-1.4
						c6.3,2.5,12.5,5.2,18.6,8.1c1.3,0.6,1.9,2.2,1.2,3.4C2976.7-1028.6,2975.2-1028,2973.8-1028.7z"/>
					<path class="st1" d="M3049.8-972.8c-6-6.4-9.7-8.6-7.2-11c1-1,2.7-1,3.7,0c6.5,6.4,9.7,8.9,7.2,11.2
						C3052.8-972,3050.8-971.8,3049.8-972.8z"/>
				</g>
				<g>
					<path class="st1" d="M3119.7-785.8c-1-0.4-1.8-1.4-1.7-2.6c0.2-3.4,0.3-6.8,0.3-10.1c0-1.4,1.2-2.5,2.6-2.5
						c1.4,0,2.6,1.2,2.6,2.6c0,3.4-0.2,6.9-0.3,10.4c-0.1,1.4-1.3,2.5-2.7,2.4C3120.2-785.6,3119.9-785.7,3119.7-785.8z"/>
					<path class="st1" d="M2767.5-570.2c-6.7-2.7-13.4-5.8-19.9-9.1c-1.3-0.7-1.8-2.2-1.2-3.5c1.8-3.5,3.3-0.2,23,7.8
						c1.3,0.5,2,2.1,1.5,3.4C2770-569.3,2767.2-570.2,2767.5-570.2z M2799.3-562.1c1-3.9,3.3-0.9,24.1,2.8c1.4,0.2,2.4,1.6,2.2,3
						c-0.2,1.4-1.6,2.3-3,2.1c-7.1-1.3-14.3-2.8-21.3-4.7C2799.8-559.3,2798.9-560.8,2799.3-562.1z M2717.2-597.5
						c-5.9-4.1-11.8-8.5-17.4-13.1c-1.1-0.9-1.3-2.5-0.4-3.6c2.6-3,3.3,0.5,20.7,12.6c1.2,0.8,1.5,2.4,0.7,3.6
						C2720-596.9,2718.4-596.7,2717.2-597.5z M2856.9-550.7c-1-0.4-1.7-1.4-1.7-2.5c0-1.4,1.2-2.5,2.7-2.5c7.1,0.3,14.3,0.3,21.3,0
						c1.4-0.1,2.7,1,2.8,2.5c0.1,1.4-1,2.6-2.5,2.7c-7.2,0.3-14.5,0.3-21.8,0C2857.4-550.5,2857.1-550.6,2856.9-550.7z
						 M2913.1-554.5c-0.8-0.3-1.5-1-1.7-1.9c-0.3-1.4,0.6-2.7,2.1-3c6.9-1.2,13.9-2.8,20.7-4.6c1.4-0.4,2.8,0.4,3.2,1.8
						c0.4,1.4-0.4,2.8-1.8,3.1c-7,1.9-14.1,3.5-21.2,4.7C2914-554.3,2913.6-554.4,2913.1-554.5z M2967-570.4
						c-0.6-0.2-1.2-0.7-1.5-1.4c-0.6-1.3,0-2.8,1.3-3.4c6.5-2.7,12.9-5.7,19.1-9c1.3-0.7,2.9-0.2,3.5,1.1c0.7,1.3,0.2,2.8-1,3.5
						c-6.3,3.3-12.9,6.4-19.5,9.2C2968.3-570.2,2967.6-570.2,2967-570.4z M3015.8-597.6c-0.5-0.2-0.9-0.5-1.2-0.9
						c-0.9-1.2-0.6-2.8,0.6-3.6c5.7-4,11.3-8.4,16.6-12.9c1.1-0.9,2.7-0.8,3.7,0.3s0.8,2.7-0.2,3.6c-5.4,4.6-11.2,9-17,13.2
						C3017.5-597.4,3016.6-597.3,3015.8-597.6z M3056.5-635.1c-3.1-2.7,0.5-3.2,13-19.8c2-2.7,6.3,0.4,4.2,3.1
						c-4.3,5.7-8.8,11.2-13.6,16.5C3059.3-634.3,3057.6-634.2,3056.5-635.1z M3089.1-680c-3.6-1.9-0.2-3.2,8.2-22.2
						c1.4-3.1,6.2-1,4.8,2.1c-2.9,6.5-6.1,12.9-9.5,19.1C3091.9-679.8,3090.3-679.4,3089.1-680z M3110.5-731.1
						c-1.3-0.5-2-1.8-1.6-3.1c1.9-6.7,3.6-13.6,4.9-20.3c0.3-1.4,1.6-2.3,3.1-2c1.4,0.3,2.3,1.6,2.1,3c-1.4,6.9-3,13.9-5,20.8
						c-0.4,1.4-1.8,2.1-3.2,1.7C3110.6-731.1,3110.5-731.1,3110.5-731.1z"/>
					<path class="st1" d="M2674-635c-6.2-6.7-9.3-9.3-6.7-11.5c2.7-2.2,4.2,1.2,10.5,8.1c1,1.1,0.9,2.7-0.1,3.6
						C2676.6-633.8,2675-633.9,2674-635z"/>
				</g>
				<g>
					<path class="st1" d="M2702.5-699.9l37.1-4.6c11.3,13.3,24.8,25,40.2,34.3c1.4,35.8-1,38.4,2.8,39.7l42.8,14.2
						c1.2,0.4,2.6,0,3.4-1l22.5-29.1c17.9,1.7,35.7,0.5,52.7-3.4l27,26c0.9,0.9,2.4,1.1,3.5,0.6l40-19.5c1.2-0.6,1.8-1.8,1.6-3.1
						l-5.2-36.6c13.4-10.9,25-24,34.3-39l37.4-0.1c1.3,0,2.5-0.8,2.9-2.1l13.8-41.8c0.4-1.2,0-2.6-1.1-3.4l-29.9-22.6
						c1.5-17.6,0-35.1-4.2-51.9c24.8-26.1,28.3-26.1,26.5-29.6c-20.7-38.5-19.6-41.8-23.6-41.3l-37.1,4.6
						c-11.3-13.3-24.8-25-40.2-34.3c-1.4-35.8,1-38.4-2.8-39.7c-42.7-13.4-43.8-16.4-46.2-13.2l-22.5,29.1
						c-17.9-1.7-35.7-0.5-52.7,3.4c-26.6-24.5-26.9-28.3-30.5-26.5c-39.3,20-42.2,18.6-41.7,22.6l5.2,36.6c-13.4,10.9-25,24-34.3,39
						c-35.7,0.9-39.1-1.6-40.3,2.2c-13,41.6-16,42.8-12.8,45.2l29.9,22.6c-1.5,17.6,0,35.1,4.2,51.9c-24.8,26-28.3,26.1-26.5,29.6
						C2699.7-702.6,2698.5-699.4,2702.5-699.9z"/>
					<g>
						<path class="st2" d="M2821.2-810.5c1.6-23.7,22.5-41.4,46.6-39.5c24.1,1.9,42.4,22.8,40.9,46.4c-1.6,23.7-22.5,41.4-46.6,39.5
							l0,0C2837.9-766,2819.6-786.8,2821.2-810.5z M2862.3-767.9L2862.3-767.9L2862.3-767.9z M2867.3-842.3
							c-19.6-1.6-37,12.7-38.3,32.4c-1.3,19.4,13.7,36.6,33.6,38.1c19.8,1.6,37-13,38.3-32.4
							C2902.1-823.6,2887.1-840.7,2867.3-842.3z"/>
					</g>
					<path class="st2" d="M2826.8-704.4L2826.8-704.4c-6.1-2.3-12-5.1-17.5-8.3c-1.7-1-2.4-3-1.7-4.7c0.1-0.2,0.2-0.4,0.3-0.6
						c1.1-1.8,3.5-2.4,5.4-1.3c6.4,3.7,13.2,6.8,20.3,9.2l0,0c53.5,17.8,111-9.1,130.3-60.2c0.5-1.3,1-2.6,1.4-4
						c17.9-54-12.5-112.2-67.3-130.4c-54.7-18.2-113.8,10.3-131.7,64.1c-10.6,32-1.3,53.5-2.6,56.8c-1.3,3.6-6.6,3.1-7.5-0.6
						c-4.8-20.3-3.7-42.3,4.1-63c33.8-89.5,161.1-94.9,205.5-8.9c13.7,26.5,16.1,56.4,6.8,84.4c-0.5,1.4-1,2.9-1.5,4.3
						c-9.8,25.9-28.9,46.9-54.3,59.2c-26.7,13-57.2,15-85.7,5.4C2829.6-703.4,2828.2-703.9,2826.8-704.4z"/>
				</g>
			</g>
		</g>
		<g>
			<g>
				<path class="st3" d="M2832.1,671h-386.7c-27.1,0-52.1,19.8-52.1,33.5V1544c0,13.7,25,27.2,52.1,27.2h386.7
					c27.1,0,58.5-13.5,58.5-27.2V704.5C2890.5,690.7,2859.2,671,2832.1,671z"/>
			</g>
			<g>
				<path class="st3" d="M2329.9,978.8c0-7.1-24.4-14.4-51.5-14.4H1896c-27.1,0-51.3,7.3-51.3,14.4v578.5c0,7.1,24.2,13.8,51.3,13.8
					h382.3c27.1,0,51.5-6.7,51.5-13.8L2329.9,978.8L2329.9,978.8z"/>
			</g>
			<g>
				<path class="st3" d="M4529.6-394.8c0-17.4-29.1-30.6-56.3-30.6h-387.1c-27.1,0-47.9,13.1-47.9,30.6v1929.2
					c0,17.4,20.8,36.7,47.9,36.7h387.1c27.1,0,56.3-19.3,56.3-36.7V-394.8z"/>
			</g>
			<g>
				<path class="st3" d="M3434.1,327c0-12.8-23.4-24.7-50.5-24.7h-382.3c-27.1,0-46.3,11.9-46.3,24.7v1219.4
					c0,12.8,19.2,24.7,46.3,24.7h382.3c27.1,0,50.5-11.8,50.5-24.7V327z"/>
			</g>
			<g>
				<path class="st3" d="M3978.4-49.8c0-14.4-21.5-24-48.6-24h-382.3c-27.1,0-48.2,9.6-48.2,24v1596c0,14.4,21.1,24.8,48.2,24.8
					h382.3c27.1,0,48.6-10.5,48.6-24.8V-49.8z"/>
			</g>
			<g>
				<path class="st3" d="M3946.9-416.5l309.5-455.6c9-13.2,27.8-13.4,36.9-0.3l319.1,455.6c11,15.7,0.2,37.7-18.4,37.7h-628.6
					C3947-379.1,3936.2-400.8,3946.9-416.5z"/>
			</g>
		</g>
		<g>
			<g>
				
					<linearGradient id="SVGID_2_" gradientUnits="userSpaceOnUse" x1="3886.4897" y1="-546.7469" x2="4297.7935" y2="-69.3416" gradientTransform="matrix(1 0 0 -1 0 560)">
					<stop  offset="0" style="stop-color:#FFCF68"/>
					<stop  offset="1" style="stop-color:#FFDC8C"/>
				</linearGradient>
				<circle class="st4" cx="4306.1" cy="619.7" r="306.6"/>
				
					<linearGradient id="SVGID_3_" gradientUnits="userSpaceOnUse" x1="4530.2046" y1="278.858" x2="3313.9692" y2="-1558.5269" gradientTransform="matrix(1 0 0 -1 0 560)">
					<stop  offset="0" style="stop-color:#FFCBA9"/>
					<stop  offset="1" style="stop-color:#FFE6A9"/>
				</linearGradient>
				<circle class="st5" cx="4306.1" cy="619.7" r="296.4"/>
				<path class="st6" d="M4061.7,503.4c-1,0-2.1-0.2-3.1-0.7c-3.4-1.7-4.7-5.8-3-9.1c48-95.1,144-154.2,250.5-154.2
					c17,0,34,1.5,50.6,4.6c3.7,0.7,6.1,4.2,5.5,7.9c-0.7,3.7-4.2,6.1-7.9,5.5c-15.8-2.9-32-4.3-48.2-4.3
					c-101.3,0-192.7,56.2-238.4,146.8C4066.6,502,4064.2,503.4,4061.7,503.4z"/>
				<circle class="st6" cx="4312.6" cy="626.2" r="250.9"/>
				<g>
					
						<linearGradient id="SVGID_4_" gradientUnits="userSpaceOnUse" x1="4314.0073" y1="206.071" x2="4314.0073" y2="-186.2798" gradientTransform="matrix(1 0 0 -1 0 560)">
						<stop  offset="0" style="stop-color:#FFCBA9"/>
						<stop  offset="1" style="stop-color:#FFE6A9"/>
					</linearGradient>
					<path class="st7" d="M4288,812.7v-27.3c-28.5-1.1-56.6-7.9-76.6-16.6c-7.1-3.1-10.8-11.1-8.7-18.7l6.9-25.4
						c2.5-9.3,12.7-14.2,21.6-10.4c19.8,8.3,44.3,14.9,70.7,14.9c27.4,0,47.8-9.3,47.8-28.3c0-17.2-15.8-27.4-53.9-37.6
						c-54.4-14.9-93.4-38.6-93.4-86.4c0-43.2,31.6-76.2,86.4-85v-27.3c0-8.8,7.1-15.9,15.9-15.9h16c8.8,0,15.9,7.1,15.9,15.9v24.5
						c26.3,1.1,45.5,5.6,60.7,10.9c7.8,2.7,12.1,11.1,9.9,19.1l-6.4,23.5c-2.5,9.1-12.2,14-20.9,10.7c-14-5.3-33.8-10.8-59.5-10.8
						c-32.5,0-41.8,13.5-41.8,25.5c0,14.9,19.5,25.1,61.8,38.1c60.4,18.1,85.5,43.2,85.5,88.3c0,41.3-30.7,78.5-90.1,87.8v30.5
						c0,8.8-7.1,15.9-15.9,15.9h-16C4295.1,828.6,4288,821.5,4288,812.7z"/>
				</g>
			</g>
			
				<linearGradient id="SVGID_5_" gradientUnits="userSpaceOnUse" x1="4328.7515" y1="-401.8362" x2="4268.8018" y2="-687.5706" gradientTransform="matrix(1 0 0 -1 0 560)">
				<stop  offset="0" style="stop-color:#FFCBA9"/>
				<stop  offset="1" style="stop-color:#FFE6A9"/>
			</linearGradient>
			<path class="st8" d="M4602.9,1127h-593.6c-2,0-3.6-1.6-3.6-3.6v-107.2c0-2,1.6-3.6,3.6-3.6h593.6c2,0,3.6,1.6,3.6,3.6v107.2
				C4606.5,1125.4,4604.9,1127,4602.9,1127z"/>
			
				<linearGradient id="SVGID_6_" gradientUnits="userSpaceOnUse" x1="4329.2466" y1="-531.0593" x2="4269.2969" y2="-816.7935" gradientTransform="matrix(1 0 0 -1 0 560)">
				<stop  offset="0" style="stop-color:#FFCBA9"/>
				<stop  offset="1" style="stop-color:#FFE6A9"/>
			</linearGradient>
			<path class="st9" d="M4603.4,1256.2h-593.6c-2,0-3.6-1.6-3.6-3.6v-107.2c0-2,1.6-3.6,3.6-3.6h593.6c2,0,3.6,1.6,3.6,3.6v107.2
				C4607,1254.6,4605.4,1256.2,4603.4,1256.2z"/>
			
				<linearGradient id="SVGID_7_" gradientUnits="userSpaceOnUse" x1="4329.7417" y1="-660.2822" x2="4269.7925" y2="-946.0166" gradientTransform="matrix(1 0 0 -1 0 560)">
				<stop  offset="0" style="stop-color:#FFCBA9"/>
				<stop  offset="1" style="stop-color:#FFE6A9"/>
			</linearGradient>
			<path class="st10" d="M4603.9,1385.4h-593.6c-2,0-3.6-1.6-3.6-3.6v-107.2c0-2,1.6-3.6,3.6-3.6h593.6c2,0,3.6,1.6,3.6,3.6v107.2
				C4607.5,1383.8,4605.9,1385.4,4603.9,1385.4z"/>
			
				<linearGradient id="SVGID_8_" gradientUnits="userSpaceOnUse" x1="4330.165" y1="-786.1463" x2="4270.2153" y2="-1071.881" gradientTransform="matrix(1 0 0 -1 0 560)">
				<stop  offset="0" style="stop-color:#FFCBA9"/>
				<stop  offset="1" style="stop-color:#FFE6A9"/>
			</linearGradient>
			<path class="st11" d="M4604.3,1511.3h-593.6c-2,0-3.6-1.6-3.6-3.6v-107.2c0-2,1.6-3.6,3.6-3.6h593.6c2,0,3.6,1.6,3.6,3.6v107.2
				C4608,1509.7,4606.3,1511.3,4604.3,1511.3z"/>
			
				<linearGradient id="SVGID_9_" gradientUnits="userSpaceOnUse" x1="4330.6543" y1="-912.0243" x2="4270.7046" y2="-1197.7587" gradientTransform="matrix(1 0 0 -1 0 560)">
				<stop  offset="0" style="stop-color:#FFCBA9"/>
				<stop  offset="1" style="stop-color:#FFE6A9"/>
			</linearGradient>
			<path class="st12" d="M4604.8,1637.2h-593.6c-2,0-3.6-1.6-3.6-3.6v-107.2c0-2,1.6-3.6,3.6-3.6h593.6c2,0,3.6,1.6,3.6,3.6v107.2
				C4608.4,1635.6,4606.8,1637.2,4604.8,1637.2z"/>
		</g>
		<g>
			<g>
				
					<linearGradient id="SVGID_10_" gradientUnits="userSpaceOnUse" x1="3235.5791" y1="-682.6594" x2="3646.8828" y2="-205.2541" gradientTransform="matrix(1 0 0 -1 0 560)">
					<stop  offset="0" style="stop-color:#FFCF68"/>
					<stop  offset="1" style="stop-color:#FFDC8C"/>
				</linearGradient>
				<circle class="st13" cx="3655.2" cy="755.6" r="306.6"/>
				
					<linearGradient id="SVGID_11_" gradientUnits="userSpaceOnUse" x1="3879.2961" y1="142.9454" x2="2663.0613" y2="-1694.439" gradientTransform="matrix(1 0 0 -1 0 560)">
					<stop  offset="0" style="stop-color:#FFCBA9"/>
					<stop  offset="1" style="stop-color:#FFE6A9"/>
				</linearGradient>
				<circle class="st14" cx="3655.2" cy="755.6" r="296.4"/>
				<path class="st6" d="M3410.8,639.3c-1,0-2.1-0.2-3.1-0.7c-3.4-1.7-4.7-5.8-3-9.1c48-95.1,144-154.2,250.5-154.2
					c17,0,34,1.5,50.6,4.5c3.7,0.7,6.1,4.2,5.5,7.9c-0.7,3.7-4.2,6.1-7.9,5.5c-15.8-2.9-32-4.3-48.2-4.3
					c-101.3,0-192.7,56.2-238.4,146.8C3415.6,637.9,3413.2,639.3,3410.8,639.3z"/>
				<circle class="st6" cx="3661.7" cy="762.1" r="250.9"/>
				<g>
					
						<linearGradient id="SVGID_12_" gradientUnits="userSpaceOnUse" x1="3712.4836" y1="154.2206" x2="3636.6882" y2="-407.557" gradientTransform="matrix(1 0 0 -1 0 560)">
						<stop  offset="0" style="stop-color:#FFCBA9"/>
						<stop  offset="1" style="stop-color:#FFE6A9"/>
					</linearGradient>
					<path class="st15" d="M3637,948.6v-27.3c-28.5-1.1-56.6-7.9-76.6-16.6c-7.1-3.1-10.8-11.1-8.7-18.7l6.9-25.4
						c2.5-9.3,12.7-14.2,21.6-10.4c19.8,8.3,44.3,14.9,70.7,14.9c27.4,0,47.8-9.3,47.8-28.3c0-17.2-15.8-27.4-53.9-37.6
						c-54.4-14.9-93.4-38.6-93.4-86.4c0-43.2,31.6-76.2,86.4-85v-27.3c0-8.8,7.1-15.9,15.9-15.9h16c8.8,0,15.9,7.1,15.9,15.9V625
						c26.3,1.1,45.5,5.6,60.7,10.9c7.8,2.7,12.1,11.1,9.9,19.1l-6.4,23.5c-2.5,9.1-12.2,14-20.9,10.7c-14-5.3-33.8-10.8-59.5-10.8
						c-32.5,0-41.8,13.5-41.8,25.5c0,14.9,19.5,25.1,61.8,38.1c60.4,18.1,85.5,43.2,85.5,88.3c0,41.3-30.7,78.5-90.1,87.8v30.5
						c0,8.8-7.1,15.9-15.9,15.9h-16C3644.2,964.5,3637,957.4,3637,948.6z"/>
				</g>
			</g>
			
				<linearGradient id="SVGID_13_" gradientUnits="userSpaceOnUse" x1="3677.845" y1="-524.3688" x2="3617.8953" y2="-810.1035" gradientTransform="matrix(1 0 0 -1 0 560)">
				<stop  offset="0" style="stop-color:#FFCBA9"/>
				<stop  offset="1" style="stop-color:#FFE6A9"/>
			</linearGradient>
			<path class="st16" d="M3952,1249.5h-593.6c-2,0-3.6-1.6-3.6-3.6v-107.2c0-2,1.6-3.6,3.6-3.6H3952c2,0,3.6,1.6,3.6,3.6v107.2
				C3955.6,1247.9,3954,1249.5,3952,1249.5z"/>
			
				<linearGradient id="SVGID_14_" gradientUnits="userSpaceOnUse" x1="3678.3401" y1="-653.592" x2="3618.3904" y2="-939.3264" gradientTransform="matrix(1 0 0 -1 0 560)">
				<stop  offset="0" style="stop-color:#FFCBA9"/>
				<stop  offset="1" style="stop-color:#FFE6A9"/>
			</linearGradient>
			<path class="st17" d="M3952.5,1378.7h-593.6c-2,0-3.6-1.6-3.6-3.6v-107.2c0-2,1.6-3.6,3.6-3.6h593.6c2,0,3.6,1.6,3.6,3.6v107.2
				C3956.1,1377.1,3954.5,1378.7,3952.5,1378.7z"/>
			
				<linearGradient id="SVGID_15_" gradientUnits="userSpaceOnUse" x1="3678.771" y1="-782.8016" x2="3618.8213" y2="-1068.536" gradientTransform="matrix(1 0 0 -1 0 560)">
				<stop  offset="0" style="stop-color:#FFCBA9"/>
				<stop  offset="1" style="stop-color:#FFE6A9"/>
			</linearGradient>
			<path class="st18" d="M3952.9,1508h-593.6c-2,0-3.6-1.6-3.6-3.6v-107.2c0-2,1.6-3.6,3.6-3.6h593.6c2,0,3.6,1.6,3.6,3.6v107.2
				C3956.6,1506.3,3954.9,1508,3952.9,1508z"/>
			
				<linearGradient id="SVGID_16_" gradientUnits="userSpaceOnUse" x1="3679.2546" y1="-912.0222" x2="3619.3049" y2="-1197.7566" gradientTransform="matrix(1 0 0 -1 0 560)">
				<stop  offset="0" style="stop-color:#FFCBA9"/>
				<stop  offset="1" style="stop-color:#FFE6A9"/>
			</linearGradient>
			<path class="st19" d="M3953.4,1637.2h-593.6c-2,0-3.6-1.6-3.6-3.6v-107.2c0-2,1.6-3.6,3.6-3.6h593.6c2,0,3.6,1.6,3.6,3.6v107.2
				C3957,1635.6,3955.4,1637.2,3953.4,1637.2z"/>
		</g>
		<g>
			
				<linearGradient id="SVGID_17_" gradientUnits="userSpaceOnUse" x1="2224.207" y1="-788.3292" x2="2242.8254" y2="-788.3292" gradientTransform="matrix(1 0 0 -1 0 560)">
				<stop  offset="0" style="stop-color:#FFCF68"/>
				<stop  offset="1" style="stop-color:#FFDC8C"/>
			</linearGradient>
			<path class="st20" d="M2237.8,1358.5c-1.4,0-2.8-0.6-3.8-1.8c-2.9-3.4-5.8-6.9-8.6-10.3c-1.8-2.1-1.5-5.3,0.7-7.1
				c2.1-1.8,5.3-1.4,7.1,0.7c2.8,3.4,5.7,6.8,8.5,10.2c1.8,2.1,1.5,5.3-0.6,7.1C2240.1,1358.1,2239,1358.5,2237.8,1358.5z"/>
			
				<linearGradient id="SVGID_18_" gradientUnits="userSpaceOnUse" x1="2062.2" y1="97.919" x2="3195.0034" y2="97.919" gradientTransform="matrix(1 0 0 -1 0 560)">
				<stop  offset="0" style="stop-color:#FFCF68"/>
				<stop  offset="1" style="stop-color:#FFDC8C"/>
			</linearGradient>
			<path class="st21" d="M2212.7,1327.4c-1.5,0-3-0.7-4-2c-5.4-7.1-10.8-14.3-15.9-21.5c-1.6-2.3-1.1-5.4,1.2-7
				c2.2-1.6,5.4-1.1,7,1.2c5.1,7.1,10.4,14.2,15.7,21.2c1.7,2.2,1.3,5.3-0.9,7C2214.8,1327.1,2213.8,1327.4,2212.7,1327.4z
				 M2181.8,1284.2c-1.6,0-3.2-0.8-4.2-2.2c-4.9-7.4-9.8-15-14.4-22.6c-1.4-2.4-0.7-5.4,1.6-6.9c2.4-1.4,5.5-0.7,6.9,1.7
				c4.6,7.5,9.4,15,14.2,22.3c1.5,2.3,0.9,5.4-1.4,7C2183.7,1283.9,2182.7,1284.2,2181.8,1284.2z M2154,1238.9
				c-1.8,0-3.4-0.9-4.4-2.6c-4.4-7.8-8.7-15.7-12.7-23.5c-1.3-2.5-0.3-5.5,2.2-6.8c2.4-1.3,5.5-0.3,6.8,2.2
				c4,7.7,8.2,15.5,12.6,23.2c1.4,2.4,0.5,5.5-1.9,6.8C2155.7,1238.7,2154.8,1238.9,2154,1238.9z M2129.6,1191.6
				c-1.9,0-3.7-1.1-4.5-2.9c-3.8-8.1-7.5-16.3-10.9-24.4c-1.1-2.6,0.1-5.5,2.7-6.6c2.5-1.1,5.5,0.1,6.6,2.7c3.4,8,7,16.1,10.8,24.1
				c1.2,2.5,0.1,5.5-2.4,6.7C2131,1191.5,2130.3,1191.6,2129.6,1191.6z M2108.8,1142.7c-2,0-3.9-1.2-4.7-3.2
				c-3.2-8.4-6.2-16.8-9-25.2c-0.9-2.6,0.5-5.5,3.2-6.3c2.6-0.9,5.5,0.5,6.3,3.2c2.8,8.3,5.7,16.6,8.8,24.9c1,2.6-0.3,5.5-2.9,6.5
				C2110,1142.6,2109.4,1142.7,2108.8,1142.7z M2092,1092.3c-2.2,0-4.2-1.4-4.8-3.6c-2.5-8.5-4.8-17.2-6.9-25.9
				c-0.7-2.7,1-5.4,3.7-6.1c2.7-0.7,5.4,1,6.1,3.7c2.1,8.5,4.4,17.1,6.8,25.5c0.8,2.7-0.8,5.4-3.4,6.2
				C2093,1092.2,2092.5,1092.3,2092,1092.3z M2079.4,1040.7c-2.3,0-4.4-1.6-4.9-4c-1.8-8.8-3.3-17.6-4.7-26.4
				c-0.4-2.7,1.4-5.3,4.2-5.7s5.3,1.4,5.7,4.2c1.3,8.6,2.9,17.3,4.6,25.9c0.5,2.7-1.2,5.4-3.9,5.9
				C2080.1,1040.6,2079.7,1040.7,2079.4,1040.7z M2071.2,988.2c-2.5,0-4.7-1.9-5-4.5c-1-8.7-1.8-17.7-2.4-26.7
				c-0.2-2.8,1.9-5.2,4.7-5.3c2.7-0.2,5.2,1.9,5.3,4.7c0.6,8.9,1.4,17.7,2.4,26.3c0.3,2.8-1.7,5.2-4.4,5.5
				C2071.6,988.2,2071.4,988.2,2071.2,988.2z M2067.5,935.2c-2.7,0-4.9-2.2-5-4.9c-0.2-6.8-0.3-13.6-0.3-20.4c0-2.1,0-4.2,0-6.3
				c0-2.8,2.4-5,5.1-5c2.8,0,5,2.3,5,5.1c0,2.1,0,4.2,0,6.2c0,6.7,0.1,13.5,0.3,20.2c0.1,2.8-2.1,5.1-4.9,5.2
				C2067.6,935.2,2067.6,935.2,2067.5,935.2z M2068,882c-0.1,0-0.2,0-0.2,0c-2.8-0.1-4.9-2.5-4.8-5.2c0.4-8.8,0.9-17.8,1.6-26.7
				c0.2-2.8,2.6-4.8,5.4-4.6s4.8,2.6,4.6,5.4c-0.7,8.8-1.2,17.6-1.6,26.4C2072.9,879.9,2070.6,882,2068,882z M2072.1,829
				c-0.2,0-0.4,0-0.6,0c-2.8-0.3-4.7-2.8-4.4-5.5c1-8.8,2.1-17.7,3.4-26.5c0.4-2.7,2.9-4.6,5.7-4.3c2.7,0.4,4.6,2.9,4.2,5.7
				c-1.3,8.7-2.4,17.6-3.4,26.2C2076.8,827.1,2074.6,829,2072.1,829z M2079.7,776.4c-0.3,0-0.6,0-0.9-0.1c-2.7-0.5-4.5-3.1-4.1-5.8
				c1.5-8.7,3.3-17.6,5.1-26.3c0.6-2.7,3.3-4.4,5.9-3.9c2.7,0.6,4.4,3.2,3.9,5.9c-1.8,8.6-3.5,17.3-5,25.9
				C2084.2,774.7,2082.1,776.4,2079.7,776.4z M2090.6,724.4c-0.4,0-0.8,0-1.2-0.1c-2.7-0.7-4.3-3.4-3.7-6.1
				c2.1-8.7,4.4-17.4,6.7-25.9c0.7-2.7,3.5-4.2,6.2-3.5c2.7,0.7,4.2,3.5,3.5,6.2c-2.3,8.4-4.5,17-6.6,25.6
				C2094.9,722.9,2092.9,724.4,2090.6,724.4z M2104.8,673.2c-0.5,0-1-0.1-1.5-0.2c-2.6-0.8-4.1-3.6-3.3-6.3c2.6-8.5,5.4-17,8.3-25.4
				c0.9-2.6,3.8-4,6.4-3.1c2.6,0.9,4,3.8,3.1,6.4c-2.9,8.3-5.6,16.7-8.2,25.1C2108.9,671.8,2106.9,673.2,2104.8,673.2z M2122.2,623
				c-0.6,0-1.2-0.1-1.8-0.3c-2.6-1-3.9-3.9-2.9-6.5c3.2-8.4,6.6-16.7,10-24.8c1.1-2.5,4-3.7,6.6-2.7c2.6,1.1,3.7,4,2.7,6.6
				c-3.4,8-6.7,16.2-9.9,24.5C2126.1,621.8,2124.2,623,2122.2,623z M2142.9,574.1c-0.7,0-1.4-0.2-2.1-0.5c-2.5-1.2-3.6-4.2-2.4-6.7
				c3.8-8.1,7.7-16.2,11.8-24.1c1.3-2.5,4.3-3.4,6.7-2.2c2.5,1.3,3.4,4.3,2.2,6.7c-4,7.8-7.9,15.8-11.6,23.7
				C2146.6,573,2144.8,574.1,2142.9,574.1z M2584.5,548.4c-4.8,0-9.7-0.4-14.4-1.1c-2.7-0.4-4.6-3-4.2-5.7c0.4-2.7,3-4.6,5.7-4.2
				c8.1,1.3,16.6,1.3,25,0.1c2.7-0.4,5.3,1.5,5.7,4.2s-1.5,5.3-4.2,5.7C2593.5,548.1,2589,548.4,2584.5,548.4z M2622.8,540.3
				c-1.9,0-3.8-1.1-4.6-3.1c-1.1-2.5,0.1-5.5,2.6-6.6c7.5-3.2,15-7.4,22.2-12.5c2.3-1.6,5.4-1.1,7,1.2s1.1,5.4-1.2,7
				c-7.8,5.5-15.9,10-24,13.5C2624.1,540.1,2623.5,540.3,2622.8,540.3z M2545.7,539.3c-0.7,0-1.5-0.2-2.2-0.5
				c-8-3.9-15.8-9.1-23.1-15.3c-2.1-1.8-2.4-5-0.6-7.1s5-2.4,7.1-0.6c6.7,5.7,13.8,10.4,21,14c2.5,1.2,3.5,4.2,2.3,6.7
				C2549.3,538.3,2547.5,539.3,2545.7,539.3z M2167.2,526.7c-0.8,0-1.7-0.2-2.4-0.6c-2.4-1.4-3.3-4.4-1.9-6.8
				c4.4-7.8,8.9-15.6,13.6-23.1c1.4-2.4,4.5-3.1,6.9-1.7c2.4,1.4,3.1,4.5,1.7,6.9c-4.6,7.4-9.1,15.1-13.4,22.8
				C2170.6,525.8,2168.9,526.7,2167.2,526.7z M2666.2,510.1c-1.3,0-2.6-0.5-3.5-1.5c-2-2-2-5.1,0-7.1c5.9-6,11.6-12.6,16.7-19.7
				c1.6-2.2,4.8-2.7,7-1.1c2.2,1.6,2.7,4.8,1.1,7c-5.4,7.5-11.4,14.5-17.7,20.8C2668.8,509.6,2667.5,510.1,2666.2,510.1z
				 M2505.1,505.6c-1.5,0-2.9-0.6-3.9-1.9c-3.2-4-6.4-8.2-9.4-12.7c-2.1-3.1-4.2-6.4-6.2-9.6c-1.4-2.4-0.7-5.5,1.7-6.9
				c2.4-1.4,5.4-0.7,6.9,1.7c1.9,3.1,3.9,6.2,5.9,9.2c2.9,4.2,5.9,8.3,8.9,12c1.7,2.2,1.4,5.3-0.8,7.1
				C2507.4,505.2,2506.2,505.6,2505.1,505.6z M2195,481.4c-1,0-1.9-0.3-2.8-0.9c-2.3-1.5-2.9-4.7-1.4-7c5-7.5,10.2-14.9,15.4-21.9
				c1.6-2.2,4.8-2.7,7-1.1s2.7,4.8,1.1,7c-5.1,7-10.2,14.2-15.2,21.6C2198.2,480.6,2196.6,481.4,2195,481.4z M2697.2,467.2
				c-0.7,0-1.5-0.2-2.2-0.5c-2.5-1.2-3.5-4.2-2.3-6.7c3.7-7.7,6.6-15.7,8.6-24c0.6-2.7,3.4-4.3,6.1-3.7c2.7,0.7,4.3,3.4,3.7,6.1
				c-2.2,8.9-5.3,17.7-9.3,26C2700.8,466.1,2699.1,467.2,2697.2,467.2z M2477.6,460.3c-1.9,0-3.7-1.1-4.6-2.9
				c-3.7-8.2-7-16.7-9.9-25.3c-0.9-2.6,0.6-5.5,3.2-6.3c2.6-0.9,5.5,0.6,6.3,3.2c2.7,8.2,5.9,16.4,9.5,24.2c1.1,2.5,0,5.5-2.5,6.6
				C2479,460.1,2478.3,460.3,2477.6,460.3z M2226.6,438.5c-1.1,0-2.2-0.4-3.2-1.1c-2.2-1.7-2.5-4.9-0.7-7.1
				c5.6-7,11.5-13.8,17.4-20.4c1.8-2.1,5-2.2,7.1-0.4c2.1,1.8,2.2,5,0.4,7.1c-5.8,6.5-11.5,13.2-17.1,20.1
				C2229.5,437.9,2228.1,438.5,2226.6,438.5z M2709.6,415.9h-0.1c-2.8-0.1-5-2.3-4.9-5.1c0-0.8,0-1.6,0-2.4c0-7.7-0.8-15.4-2.3-22.9
				c-0.6-2.7,1.2-5.4,3.9-5.9c2.7-0.6,5.4,1.2,5.9,3.9c1.7,8.2,2.5,16.6,2.5,25c0,0.9,0,1.7,0,2.6
				C2714.5,413.7,2712.3,415.9,2709.6,415.9z M2461,409.9c-2.3,0-4.4-1.6-4.9-4c-1.9-8.8-3.3-17.8-4.2-26.8
				c-0.3-2.8,1.7-5.2,4.5-5.5c2.8-0.3,5.2,1.7,5.5,4.5c0.9,8.6,2.3,17.3,4.1,25.7c0.6,2.7-1.2,5.4-3.9,5.9
				C2461.7,409.9,2461.4,409.9,2461,409.9z M2262,398.9c-1.3,0-2.6-0.5-3.5-1.4c-2-1.9-2-5.1,0-7.1c6.3-6.4,12.8-12.6,19.4-18.6
				c2-1.9,5.2-1.7,7.1,0.3s1.7,5.2-0.3,7.1c-6.4,5.8-12.8,12-19,18.2C2264.6,398.4,2263.3,398.9,2262,398.9z M2698.8,364.3
				c-1.9,0-3.7-1.1-4.5-2.9c-1.5-3.3-3.2-6.5-5.1-9.6c-2.5-4.2-5.2-8.3-8.2-12.2c-1.7-2.2-1.2-5.4,1-7c2.2-1.7,5.4-1.2,7,1
				c3.1,4.2,6.1,8.6,8.8,13.1c2,3.4,3.9,6.9,5.5,10.5c1.2,2.5,0.1,5.5-2.4,6.7C2700.3,364.2,2699.5,364.3,2698.8,364.3z
				 M2301.4,363.2c-1.5,0-2.9-0.6-3.9-1.9c-1.7-2.2-1.4-5.3,0.7-7.1c6.7-5.5,13.7-10.8,20.6-15.8l0.7-0.5c2.2-1.6,5.4-1.1,7,1.1
				s1.1,5.4-1.1,7l-0.7,0.5c-6.8,4.9-13.6,10.1-20.1,15.5C2303.6,362.8,2302.5,363.2,2301.4,363.2z M2455.5,357.1L2455.5,357.1
				c-2.8,0-5-2.3-5-5c0-8.9,0.5-18,1.4-27c0.3-2.8,2.8-4.8,5.5-4.5c2.8,0.3,4.8,2.7,4.5,5.5c-0.9,8.7-1.3,17.4-1.4,26
				C2460.5,354.9,2458.3,357.1,2455.5,357.1z M2344.5,332.1c-1.7,0-3.3-0.8-4.2-2.3c-1.5-2.3-0.8-5.4,1.6-6.9
				c7.6-4.8,15.4-9.4,23.2-13.6c2.4-1.3,5.5-0.4,6.8,2c1.3,2.4,0.4,5.5-2,6.8c-7.6,4.1-15.2,8.6-22.6,13.3
				C2346.3,331.9,2345.4,332.1,2344.5,332.1z M2667.3,322c-1.2,0-2.4-0.4-3.4-1.3c-6.2-5.7-13-11-20.3-15.7c-2.3-1.5-3-4.6-1.5-6.9
				s4.6-3,6.9-1.5c7.8,5,15.1,10.7,21.7,16.8c2,1.9,2.2,5.1,0.3,7.1C2670,321.4,2668.6,322,2667.3,322z M2391.1,306.7
				c-1.9,0-3.7-1.1-4.6-2.9c-1.2-2.5-0.1-5.5,2.5-6.7c8.2-3.8,16.5-7.3,24.8-10.4c2.6-1,5.5,0.3,6.5,2.9s-0.3,5.5-2.9,6.5
				c-8.1,3.1-16.2,6.5-24.2,10.2C2392.6,306.6,2391.8,306.7,2391.1,306.7z M2460.9,304.3c-0.3,0-0.7,0-1-0.1
				c-2.7-0.6-4.5-3.2-3.9-5.9c1-5.1,2.2-10.2,3.6-15.3c-5.8,1.4-11.6,3-17.4,4.7c-2.6,0.8-5.4-0.7-6.2-3.4c-0.8-2.7,0.7-5.4,3.4-6.2
				c7.7-2.3,15.6-4.3,23.4-6.1c0.8-2.6,3.6-4,6.2-3.2c2.7,0.8,4.1,3.6,3.3,6.3c-2.6,8.4-4.7,16.9-6.4,25.3
				C2465.4,302.7,2463.3,304.3,2460.9,304.3z M2622.9,293c-0.7,0-1.4-0.1-2.1-0.4c-7.7-3.5-15.8-6.5-24.3-9
				c-2.7-0.8-4.2-3.6-3.4-6.2c0.8-2.7,3.6-4.2,6.2-3.4c8.9,2.6,17.5,5.8,25.5,9.4c2.5,1.1,3.7,4.1,2.5,6.6
				C2626.7,291.9,2624.9,293,2622.9,293z M2572.2,277.9c-0.3,0-0.6,0-0.8-0.1c-8.4-1.4-17.1-2.4-25.9-2.9c-2.8-0.2-4.9-2.5-4.7-5.3
				c0.2-2.8,2.5-4.9,5.3-4.7c9.1,0.5,18.2,1.6,26.9,3c2.7,0.5,4.6,3.1,4.1,5.8C2576.7,276.1,2574.6,277.9,2572.2,277.9z
				 M2492.7,276.8c-2.5,0-4.6-1.8-5-4.4c-0.4-2.7,1.6-5.3,4.3-5.6c9-1.2,18.1-1.9,26.9-2.3c2.8-0.1,5.1,2.1,5.2,4.8
				c0.1,2.8-2.1,5.1-4.8,5.2c-8.5,0.3-17.3,1.1-26,2.2C2493.2,276.8,2492.9,276.8,2492.7,276.8z M2476.4,253.6
				c-0.6,0-1.3-0.1-1.9-0.4c-2.6-1-3.8-4-2.8-6.5c3.3-8.2,7.1-16.5,11.2-24.5c1.3-2.5,4.3-3.5,6.7-2.2c2.5,1.3,3.5,4.3,2.2,6.7
				c-4,7.8-7.6,15.8-10.9,23.8C2480.3,252.4,2478.4,253.6,2476.4,253.6z M2500.4,206.2c-0.9,0-1.8-0.2-2.6-0.7
				c-2.4-1.4-3.1-4.5-1.7-6.9c4.6-7.5,9.6-15.1,14.8-22.5c1.6-2.3,4.7-2.8,7-1.2c2.3,1.6,2.8,4.7,1.2,7c-5.1,7.2-10,14.6-14.4,21.9
				C2503.7,205.4,2502.1,206.2,2500.4,206.2z M2531.3,163.1c-1.2,0-2.3-0.4-3.3-1.2c-2.1-1.8-2.3-5-0.5-7.1
				c5.9-6.9,12.2-13.5,18.7-19.6c2-1.9,5.2-1.8,7.1,0.2c1.9,2,1.8,5.2-0.2,7.1c-6.2,5.9-12.3,12.2-17.9,18.8
				C2534.1,162.5,2532.7,163.1,2531.3,163.1z M2569.9,126.8c-1.5,0-3-0.7-4-2c-1.7-2.2-1.2-5.4,1-7c7.1-5.3,14.7-10.4,22.5-15.1
				c2.4-1.4,5.5-0.6,6.9,1.7c1.4,2.4,0.6,5.5-1.7,6.9c-7.5,4.5-14.8,9.3-21.6,14.5C2572,126.5,2570.9,126.8,2569.9,126.8z
				 M2615.3,99.6c-1.9,0-3.7-1.1-4.5-2.9c-1.2-2.5-0.1-5.5,2.4-6.7c7.9-3.7,16-7.1,24.8-10.5c2.6-1,5.5,0.3,6.5,2.9
				s-0.3,5.5-2.9,6.5c-8.6,3.2-16.5,6.6-24.1,10.2C2616.8,99.4,2616.1,99.6,2615.3,99.6z M2665,80.7c-2.1,0-4.1-1.4-4.8-3.5
				c-0.8-2.6,0.7-5.5,3.3-6.3c7.6-2.4,15.8-4.7,25.7-7.4c2.7-0.7,5.4,0.8,6.2,3.5s-0.8,5.4-3.5,6.2c-9.8,2.7-17.8,5-25.4,7.3
				C2665.9,80.6,2665.4,80.7,2665,80.7z M2716.2,66.5c-2.2,0-4.3-1.5-4.8-3.7c-0.7-2.7,0.9-5.4,3.6-6.1c8.2-2.2,17-4.5,25.5-7
				c2.7-0.8,5.4,0.7,6.2,3.4c0.8,2.7-0.7,5.4-3.4,6.2c-8.6,2.5-17.5,4.9-25.8,7.1C2717,66.4,2716.6,66.5,2716.2,66.5z M2767,51.1
				c-2,0-3.9-1.2-4.7-3.2c-1-2.6,0.3-5.5,2.9-6.5c8.9-3.3,16.6-6.8,23.6-10.6c2.4-1.3,5.5-0.4,6.8,2s0.4,5.5-2,6.8
				c-7.4,4-15.5,7.7-24.8,11.2C2768.2,51,2767.6,51.1,2767,51.1z M2813.2,25.4c-1.4,0-2.8-0.6-3.8-1.8c-1.8-2.1-1.5-5.3,0.6-7.1
				c6.6-5.6,12.1-11.6,17-18.5c1.6-2.3,4.7-2.8,7-1.2c2.3,1.6,2.8,4.7,1.2,7c-5.3,7.5-11.6,14.3-18.7,20.4
				C2815.5,25,2814.3,25.4,2813.2,25.4z M2843.6-17.3c-0.6,0-1.3-0.1-1.9-0.4c-2.6-1.1-3.8-4-2.7-6.5c3.2-7.7,6.3-15.8,9.4-24.6
				c0.9-2.6,3.8-4,6.4-3c2.6,0.9,4,3.8,3,6.4c-3.2,9-6.3,17.2-9.6,25C2847.5-18.5,2845.6-17.3,2843.6-17.3z M2861.7-67.3
				c-0.5,0-1-0.1-1.5-0.2c-2.6-0.8-4.1-3.7-3.2-6.3c2.7-8.4,5.3-16.8,7.9-25.3c0.8-2.6,3.6-4.1,6.3-3.3c2.6,0.8,4.1,3.6,3.3,6.3
				c-2.6,8.5-5.2,17-7.9,25.5C2865.7-68.6,2863.8-67.3,2861.7-67.3z M2877.3-118.1c-0.5,0-1-0.1-1.5-0.2c-2.7-0.8-4.1-3.6-3.3-6.3
				c2.6-8.5,5.2-17,7.9-25.5c0.8-2.6,3.7-4.1,6.3-3.2c2.6,0.8,4.1,3.7,3.2,6.3c-2.7,8.4-5.3,16.9-7.9,25.3
				C2881.4-119.5,2879.4-118.1,2877.3-118.1z M2893.6-168.7c-0.6,0-1.1-0.1-1.7-0.3c-2.6-0.9-4-3.8-3-6.4c3.2-9,6.3-17.2,9.5-25
				c1-2.6,4-3.8,6.5-2.7c2.6,1,3.8,4,2.7,6.5c-3.2,7.7-6.2,15.8-9.4,24.6C2897.6-169.9,2895.7-168.7,2893.6-168.7z M2913.8-217.7
				c-0.7,0-1.5-0.2-2.2-0.5c-2.5-1.2-3.5-4.2-2.3-6.7c4-8.3,8.2-16.3,12.6-23.8c1.4-2.4,4.5-3.2,6.9-1.8c2.4,1.4,3.2,4.5,1.8,6.9
				c-4.2,7.3-8.4,15.1-12.3,23.1C2917.5-218.8,2915.7-217.7,2913.8-217.7z M2940.5-263.6c-1,0-2-0.3-2.9-0.9c-2.3-1.6-2.8-4.7-1.2-7
				c5.2-7.4,10.7-14.6,16.5-21.4c1.8-2.1,5-2.4,7.1-0.6s2.4,5,0.6,7.1c-5.6,6.6-10.9,13.5-15.9,20.7
				C2943.7-264.4,2942.1-263.6,2940.5-263.6z M2974.8-304.1c-1.3,0-2.6-0.5-3.6-1.5c-1.9-2-1.9-5.2,0.1-7.1
				c4.7-4.6,9.7-9.2,14.8-13.6c1.7-1.5,3.5-3,5.3-4.4c2.1-1.8,5.3-1.5,7.1,0.7c1.8,2.1,1.5,5.3-0.7,7.1c-1.7,1.4-3.4,2.9-5.1,4.3
				c-4.9,4.2-9.8,8.7-14.3,13.2C2977.3-304.6,2976.1-304.1,2974.8-304.1z M3015.7-338c-1.6,0-3.1-0.7-4.1-2.1
				c-1.6-2.3-1.1-5.4,1.2-7c7.4-5.2,15-10.1,22.7-14.6c2.4-1.4,5.5-0.6,6.9,1.8s0.6,5.5-1.8,6.9c-7.4,4.4-14.8,9.2-22,14.2
				C3017.7-338.3,3016.7-338,3015.7-338z M3061.4-364.9c-1.9,0-3.7-1-4.5-2.8c-1.2-2.5-0.2-5.5,2.3-6.7c8.2-3.9,16.5-7.5,24.8-10.6
				c2.6-1,5.5,0.3,6.5,2.9s-0.3,5.5-2.9,6.5c-8,3-16.1,6.5-24,10.3C3062.9-365.1,3062.2-364.9,3061.4-364.9z M3111.1-383.6
				c-2.2,0-4.2-1.5-4.8-3.7c-0.7-2.7,0.8-5.4,3.5-6.2c8.7-2.4,17.6-4.4,26.4-5.9c2.7-0.5,5.3,1.4,5.8,4.1s-1.4,5.3-4.1,5.8
				c-8.5,1.5-17,3.4-25.5,5.7C3112-383.6,3111.6-383.6,3111.1-383.6z M3163.4-392.5c-2.6,0-4.8-2-5-4.7c-0.2-2.8,1.9-5.2,4.7-5.4
				c9-0.6,18.1-0.8,27.1-0.5c2.8,0.1,4.9,2.4,4.8,5.2c-0.1,2.8-2.4,4.9-5.2,4.8c-8.6-0.3-17.4-0.1-26,0.5
				C3163.7-392.5,3163.6-392.5,3163.4-392.5z"/>
			
				<linearGradient id="SVGID_19_" gradientUnits="userSpaceOnUse" x1="3212.2573" y1="954.4266" x2="3235.4604" y2="954.4266" gradientTransform="matrix(1 0 0 -1 0 560)">
				<stop  offset="0" style="stop-color:#FFCF68"/>
				<stop  offset="1" style="stop-color:#FFDC8C"/>
			</linearGradient>
			<path class="st22" d="M3230.5-388.3c-0.3,0-0.7,0-1-0.1c-4.3-0.9-8.6-1.6-12.9-2.2c-2.7-0.4-4.6-2.9-4.2-5.7
				c0.4-2.7,3-4.6,5.7-4.2c4.5,0.6,9,1.4,13.4,2.3c2.7,0.5,4.5,3.2,3.9,5.9C3234.9-389.9,3232.8-388.3,3230.5-388.3z"/>
		</g>
		<g>
			
				<linearGradient id="SVGID_20_" gradientUnits="userSpaceOnUse" x1="3229.4526" y1="1179.8306" x2="3142.5107" y2="848.7824" gradientTransform="matrix(1 0 0 -1 0 560)">
				<stop  offset="0" style="stop-color:#FFCBA9"/>
				<stop  offset="1" style="stop-color:#FFE6A9"/>
			</linearGradient>
			<path class="st23" d="M3255.7-340.1c0,0,19.7,118.3-65.6,142.1c-85.3,23.8-177.2,26.7-197.9,62.9c0,0,6.1-234.4,239.2-239.7
				L3255.7-340.1z"/>
			<path class="st3" d="M3506.7-368c0,0,58.8,102,37.8,136c-20,32.3-246.5,172.8-268.6,186.4c-1,0.6-2.3,0.3-2.9-0.6l0,0
				c-5.7-7.8-7.3-17.8-4.4-27c14.1-44.4,57.4-176.6,83.4-212.4C3383.2-328.9,3506.7-368,3506.7-368z"/>
			<path class="st2" d="M3347.7-109c0.7,0.2,1.5,0.1,2.1-0.3c1.2-0.8,124-79.9,175.5-116c9.2-6.4,13.7-17.7,11.5-28.6
				c-3.4-17.3-11.2-50.9-24.6-81.9c-0.6-1.4-2.2-2-3.6-1.4c-1.4,0.6-2,2.2-1.4,3.6c13.3,30.5,20.9,63.7,24.3,80.8
				c1.8,8.9-1.9,17.9-9.3,23.1c-51.4,36-174.1,115.1-175.3,115.9c-1.3,0.8-1.6,2.5-0.8,3.7C3346.5-109.5,3347.1-109.2,3347.7-109z"
				/>
			<path class="st3" d="M3345.1-588.8c0,0-79.5-86.9-118.2-77.1c-36.8,9.3-239.2,182.7-258.9,199.6c-0.9,0.8-1,2-0.3,3l0,0
				c5.7,7.8,14.7,12.4,24.4,12.4c46.6,0,185.7-1.3,227.6-15.2C3270.4-482.9,3345.1-588.8,3345.1-588.8z"/>
			<path class="st2" d="M3052.2-512.9c0.8,0.2,1.7,0,2.4-0.5c1.1-0.9,113.5-94,163.5-132.1c7.2-5.5,17-6.2,24.9-1.9
				c15.3,8.4,44.6,25.7,69.7,47.6c1.1,1,2.8,0.9,3.8-0.3c1-1.1,0.9-2.8-0.3-3.8c-24.2-21.1-51.7-37.9-70.6-48.3
				c-9.8-5.4-21.9-4.5-30.8,2.3c-50,38.2-162.5,131.3-163.6,132.2c-1.2,1-1.3,2.7-0.4,3.8C3051.1-513.3,3051.6-513,3052.2-512.9z"/>
			
				<linearGradient id="SVGID_21_" gradientUnits="userSpaceOnUse" x1="3648.3831" y1="1542.1603" x2="3902.5198" y2="2348.0415" gradientTransform="matrix(1 0 0 -1 0 560)">
				<stop  offset="0" style="stop-color:#BAFFFF"/>
				<stop  offset="1" style="stop-color:#A9FFFF"/>
			</linearGradient>
			<path class="st24" d="M3824.9-602.8c-33.4,46.5-76.9,93.5-133.4,135.1c-175.4,129.1-326.6,193.7-370.1,210.9
				c-7.9,3.1-16.8,1.6-23.3-3.8c-51.3-42.6-89.9-94.6-115.9-155.8c-4.9-11.5-2.9-24.8,5.1-34.5c34.7-41.8,140.2-161.2,308.7-283.8
				c56.3-40.9,113.8-68.1,167.9-85.9C3752-751.4,3800.5-657.6,3824.9-602.8z"/>
			
				<linearGradient id="SVGID_22_" gradientUnits="userSpaceOnUse" x1="3999.7722" y1="1935.7626" x2="3886.0789" y2="1624.778" gradientTransform="matrix(1 0 0 -1 0 560)">
				<stop  offset="0" style="stop-color:#FFCBA9"/>
				<stop  offset="1" style="stop-color:#FFE6A9"/>
			</linearGradient>
			<path class="st25" d="M3663.9-820.7c119.4-39.4,221.7-33.2,255.8-29.5c6.7,0.7,11.2,7,9.9,13.5c-6.8,33.5-31.7,132.3-104.7,233.8
				C3800.5-657.6,3752-751.4,3663.9-820.7z"/>
			<g>
				
					<ellipse transform="matrix(-0.807 0.5906 -0.5906 -0.807 6154.8965 -3230.7483)" class="st1" cx="3605.4" cy="-609.6" rx="102.1" ry="109.6"/>
				
					<linearGradient id="SVGID_23_" gradientUnits="userSpaceOnUse" x1="3726.8267" y1="-5052.0186" x2="3901.564" y2="-5052.0186" gradientTransform="matrix(-0.5905 -0.807 0.807 -0.5905 9935.2607 -518.8616)">
					<stop  offset="0" style="stop-color:#572459"/>
					<stop  offset="1" style="stop-color:#6B386D"/>
				</linearGradient>
				<path class="st26" d="M3554.4-684.2c-36.3,26.5-42.6,79.6-14.1,118.6c28.5,38.9,81,49,117.3,22.4
					c36.3-26.5,42.6-79.6,14.1-118.6C3643.1-700.7,3590.6-710.8,3554.4-684.2z"/>
				<path class="st2" d="M3654.3-573.3c1,0.3,2.2-0.1,2.8-1c17.3-23.2,17-56.3-0.8-80.6c-4.5-6.1-9.8-11.4-15.9-15.8
					c-1.2-0.9-2.9-0.6-3.8,0.6c-0.9,1.2-0.6,2.9,0.6,3.8c5.6,4,10.6,8.9,14.7,14.6c16.4,22.4,16.8,52.9,0.9,74.2
					c-0.9,1.2-0.7,2.9,0.5,3.8C3653.6-573.5,3654-573.4,3654.3-573.3z"/>
			</g>
			<g>
				
					<ellipse transform="matrix(-0.807 0.5906 -0.5906 -0.807 5927.2056 -2914.0398)" class="st1" cx="3439.8" cy="-488.4" rx="67.5" ry="72.4"/>
				
					<linearGradient id="SVGID_24_" gradientUnits="userSpaceOnUse" x1="3755.4749" y1="-5258.3374" x2="3870.886" y2="-5258.3374" gradientTransform="matrix(-0.5905 -0.807 0.807 -0.5905 9935.2607 -518.8616)">
					<stop  offset="0" style="stop-color:#572459"/>
					<stop  offset="1" style="stop-color:#6B386D"/>
				</linearGradient>
				<path class="st27" d="M3406-537.6c-24,17.5-28.1,52.6-9.3,78.3c18.8,25.7,53.5,32.4,77.5,14.8c24-17.5,28.1-52.6,9.3-78.3
					S3430-555.2,3406-537.6z"/>
				<path class="st2" d="M3471.8-463.5c1,0.3,2.2-0.1,2.8-1c11.7-15.6,11.5-38-0.5-54.4c-3-4.1-6.6-7.7-10.7-10.6
					c-1.2-0.9-2.9-0.6-3.8,0.6c-0.9,1.2-0.6,2.9,0.6,3.8c3.6,2.6,6.8,5.8,9.5,9.4c10.6,14.5,10.8,34.2,0.6,47.9
					c-0.9,1.2-0.7,2.9,0.5,3.8C3471.2-463.7,3471.5-463.6,3471.8-463.5z"/>
			</g>
		</g>
		<g>
			
				<linearGradient id="SVGID_25_" gradientUnits="userSpaceOnUse" x1="3163.2507" y1="-957.1455" x2="2625.5605" y2="-1542.0022" gradientTransform="matrix(1 0 0 -1 0 560)">
				<stop  offset="0" style="stop-color:#572459"/>
				<stop  offset="1" style="stop-color:#6B386D"/>
			</linearGradient>
			<path class="st28" d="M2993.3,1560.7c0,0-5.6,31.5-8.3,62.7c-1.1,12.2,8.3,22.8,20.6,23.3c41.6,1.7,130.4,5.1,162.3,3.7
				c4.8-0.2,7.9-5.1,6.2-9.6c-1.5-3.7-4.4-6.8-8-8.4l-146.8-67.5L2993.3,1560.7z"/>
			
				<linearGradient id="SVGID_26_" gradientUnits="userSpaceOnUse" x1="2988.7" y1="-1000.6075" x2="3036.5" y2="-1000.6075" gradientTransform="matrix(1 0 0 -1 0 560)">
				<stop  offset="0" style="stop-color:#C9B07E"/>
				<stop  offset="1" style="stop-color:#AB6600"/>
			</linearGradient>
			<path class="st29" d="M2988.7,1542.2l4.5,37.7c0,0,25.7,12,43.3-1.5l-10.7-42L2988.7,1542.2z"/>
			
				<linearGradient id="SVGID_27_" gradientUnits="userSpaceOnUse" x1="2875.522" y1="-635.4037" x2="3033.3953" y2="-635.4037" gradientTransform="matrix(1 0 0 -1 0 560)">
				<stop  offset="0" style="stop-color:#572459"/>
				<stop  offset="1" style="stop-color:#6B386D"/>
			</linearGradient>
			<path class="st30" d="M2992.1,833.3c-1.9,9.8-10.4,491.4,41.1,707.2c0.8,3.5-0.9,7.1-4.3,8.5c-7.9,3.2-23.4,7.9-41.9,8.5
				c-5.7,0.2-10.9-3.5-12.5-9.1c-14.7-50.1-85.2-300.9-94.4-540.5c-10.3-267.8,0-9.1,0-9.1l6-165.5L2992.1,833.3z"/>
			
				<linearGradient id="SVGID_28_" gradientUnits="userSpaceOnUse" x1="3042.6721" y1="-846.2914" x2="2504.9824" y2="-1431.1477" gradientTransform="matrix(1 0 0 -1 0 560)">
				<stop  offset="0" style="stop-color:#572459"/>
				<stop  offset="1" style="stop-color:#6B386D"/>
			</linearGradient>
			<path class="st31" d="M2824.4,1577.2c0,0-8.9,15.9-17.4,58.2c-1.5,7.6,3.8,14.9,11.5,15.7c13.7,1.3,34.8,3.1,51.8,3
				c7.8-0.1,13.9-6.8,12.9-14.6c-1.9-15.4-7.7-40.8-25.8-60.5L2824.4,1577.2z"/>
			
				<linearGradient id="SVGID_29_" gradientUnits="userSpaceOnUse" x1="2816.6001" y1="-998.1205" x2="2857.8364" y2="-998.1205" gradientTransform="matrix(1 0 0 -1 0 560)">
				<stop  offset="0" style="stop-color:#C9B07E"/>
				<stop  offset="1" style="stop-color:#AB6600"/>
			</linearGradient>
			<path class="st32" d="M2816.6,1528.7l10.5,57c0,0,10.3,7.7,30.8,2.1l-5-61.4L2816.6,1528.7z"/>
			
				<linearGradient id="SVGID_30_" gradientUnits="userSpaceOnUse" x1="2772.1875" y1="-630.2947" x2="2996.3" y2="-630.2947" gradientTransform="matrix(1 0 0 -1 0 560)">
				<stop  offset="0" style="stop-color:#572459"/>
				<stop  offset="1" style="stop-color:#6B386D"/>
			</linearGradient>
			<path class="st33" d="M2788.4,848.1c-42.1,254.1,9.1,627.9,26.4,701.1c1.1,4.5,4.7,7.9,9.2,8.7c7.7,1.3,20.4,2.3,32.9-1.3
				c4.3-1.3,7.3-5.1,7.5-9.6c2.3-59.2-1.9-422.4,37.4-565.9c2-7.3,6.4-13.6,12.6-18l76.1-54.1l5.8-87.5L2788.4,848.1z"/>
			<g>
				
					<linearGradient id="SVGID_31_" gradientUnits="userSpaceOnUse" x1="3423.5413" y1="683.1749" x2="3192.823" y2="357.1594" gradientTransform="matrix(1 0 0 -1 0 560)">
					<stop  offset="0" style="stop-color:#FFCBA9"/>
					<stop  offset="1" style="stop-color:#FFE6A9"/>
				</linearGradient>
				<path class="st34" d="M3056.6,366.7c-126.2-2.1-265.4,33.1-265.4,33.1c-37.6,219.4-6.6,472.5-6.6,472.5
					c97.7,25.6,207.8-15.7,207.8-15.7c16.2-91.7,92-349.8,92-349.8c61.6-7.7,112.4-25.4,154.2-48.9c-31.9-37-46.9-84-53.5-111.8
					C3140.7,359.9,3095.5,367.3,3056.6,366.7z"/>
				
					<linearGradient id="SVGID_32_" gradientUnits="userSpaceOnUse" x1="3185.3" y1="245.4895" x2="3429.3" y2="245.4895" gradientTransform="matrix(1 0 0 -1 0 560)">
					<stop  offset="0" style="stop-color:#C9B07E"/>
					<stop  offset="1" style="stop-color:#AB6600"/>
				</linearGradient>
				<path class="st35" d="M3429.3,180.8c-12.4-15-28.1-7.9-28.1-7.9c-18.6,78.4-115.9,142-215.9,173.1
					c6.5,27.8,21.6,74.9,53.5,111.8C3404.7,364.6,3429.3,180.8,3429.3,180.8z"/>
			</g>
			<g>
				
					<linearGradient id="SVGID_33_" gradientUnits="userSpaceOnUse" x1="12572.873" y1="286.3162" x2="12736.6016" y2="-86.2043" gradientTransform="matrix(-1 0 0 -1 15947.7783 560)">
					<stop  offset="0" style="stop-color:#C9B07E"/>
					<stop  offset="1" style="stop-color:#AB6600"/>
				</linearGradient>
				<path class="st36" d="M3426.3,184.7c1.3,4.1-13.7,10.4-22.6-6.5c-0.3-8.1-5.2-42.7-0.4-49.3c25.7-35.1,75.6-79,75.6-79
					c8.4,8.3,1.5,16.5,1.5,16.5l-24.2,25.2c5.1,9.1,11.2,16.9,14.1,27.9c2.2,8.4,0.9,17.3-3.4,24.9c-4.2,7.6-10,17.6-15.5,25.4
					C3441,184.5,3426.3,184.7,3426.3,184.7z"/>
				
					<linearGradient id="SVGID_34_" gradientUnits="userSpaceOnUse" x1="3428.1428" y1="410.3444" x2="3496.46" y2="515.3822" gradientTransform="matrix(1 0 0 -1 0 560)">
					<stop  offset="0" style="stop-color:#C9B07E"/>
					<stop  offset="1" style="stop-color:#AB6600"/>
				</linearGradient>
				<path class="st37" d="M3445.6,107.9l-22,18.7l-6.9,18.6l19.7,21.8c0,0,6.6-36.9,11.5-44.9
					C3452.7,114.1,3450.2,110.3,3445.6,107.9z"/>
			</g>
			
				<linearGradient id="SVGID_35_" gradientUnits="userSpaceOnUse" x1="3283.7773" y1="782.0844" x2="3053.0591" y2="456.0691" gradientTransform="matrix(1 0 0 -1 0 560)">
				<stop  offset="0" style="stop-color:#FFCBA9"/>
				<stop  offset="1" style="stop-color:#FFE6A9"/>
			</linearGradient>
			<path class="st38" d="M2839.6,522l-48.4-122.2c0,0-117.8,80.1-137.2,181.6c22.3,1.6,62.8,7.4,102.4,27.5
				C2765.2,560.9,2839.6,522,2839.6,522z"/>
			
				<linearGradient id="SVGID_36_" gradientUnits="userSpaceOnUse" x1="2651.4233" y1="-100.0849" x2="2960.2" y2="-100.0849" gradientTransform="matrix(1 0 0 -1 0 560)">
				<stop  offset="0" style="stop-color:#C9B07E"/>
				<stop  offset="1" style="stop-color:#AB6600"/>
			</linearGradient>
			<path class="st39" d="M2942.6,636.9c0,0-132.3,74.8-176.9,10.9c-9.3-13.3-11.5-26.4-9.2-39c-39.7-20-80.2-25.8-102.4-27.5
				c-5.8,30.6-2.8,63.2,15.2,96c78.2,143,290.9-7.9,290.9-7.9L2942.6,636.9z"/>
			<g>
				
					<linearGradient id="SVGID_37_" gradientUnits="userSpaceOnUse" x1="2986.5947" y1="-169.6664" x2="3250.3723" y2="293.1433" gradientTransform="matrix(1 0 0 -1 0 560)">
					<stop  offset="0" style="stop-color:#BAFFFF"/>
					<stop  offset="1" style="stop-color:#A9FFFF"/>
				</linearGradient>
				<path class="st40" d="M2926.7,731.5l72.2-252.2c0.8-2.9,3.3-5,6.2-5.3c13.1-1.5,51-5.8,94.8-9.5c52.7-4.5,113.9-8.1,150.5-5
					c5.2,0.4,8.3,5.9,6,10.6c-20.8,42.1-106.4,213.3-149.2,269.4c-1.4,1.9-3.6,2.9-6,2.9l-167.5-1.6
					C2928.9,740.9,2925.4,736.2,2926.7,731.5z"/>
				<path class="st1" d="M3107.4,442.7l52.4-8.7c2.8-0.5,5.1,2.2,4.2,4.9l-5.2,15.7c-0.5,1.4-1.6,2.4-3.1,2.5l-50.4,6.7
					c-2.6,0.3-4.8-2-4.2-4.6l3.2-13.7C3104.7,444,3105.9,442.9,3107.4,442.7z"/>
				<path class="st1" d="M3068.2,487l4.3-22.5c0.4-2.3,2.3-4,4.6-4.2l105.7-10.7c3.6-0.4,6.4,2.9,5.6,6.4l-6.7,28
					c-0.5,2.2-2.5,3.9-4.8,4l-103.3,5.2C3070.2,493.3,3067.6,490.3,3068.2,487z"/>
				
					<linearGradient id="SVGID_38_" gradientUnits="userSpaceOnUse" x1="2937.2207" y1="-67.8881" x2="3033.3999" y2="-67.8881" gradientTransform="matrix(1 0 0 -1 0 560)">
					<stop  offset="0" style="stop-color:#C9B07E"/>
					<stop  offset="1" style="stop-color:#AB6600"/>
				</linearGradient>
				<path class="st41" d="M2944.2,670.6c0,0-10.1-41.4-6-56c4.1-14.7,11.9-33.5,38.1-29.3c26.2,4.2,57.1,15.2,57.1,15.2
					s-1.6,19.1-21.5,12.9l12.3,9.6c0,0-1.8,15.3-18.6,7.1l11.5,12.7c0,0-7.2,12.6-19.6,4.5C2985.2,639.2,2979.3,675.6,2944.2,670.6z
					"/>
			</g>
			
				<linearGradient id="SVGID_39_" gradientUnits="userSpaceOnUse" x1="2888.4482" y1="229.9377" x2="3010.6001" y2="229.9377" gradientTransform="matrix(1 0 0 -1 0 560)">
				<stop  offset="0" style="stop-color:#C9B07E"/>
				<stop  offset="1" style="stop-color:#AB6600"/>
			</linearGradient>
			<path class="st42" d="M2928.8,264.3l-40.1,116.1c-0.7,1.9,0.1,4.1,1.9,5c10.9,6,50.4,23.5,97.9-6.6c4.9-3.1,8.3-8.3,9.1-14.1
				l13-100.5L2928.8,264.3L2928.8,264.3z"/>
			<g>
				
					<linearGradient id="SVGID_40_" gradientUnits="userSpaceOnUse" x1="-1561.4596" y1="2993.4668" x2="-1607.0802" y2="3143.9348" gradientTransform="matrix(0.746 -0.6659 -0.6659 -0.746 6197.7393 1445.8123)">
					<stop  offset="0" style="stop-color:#C9B07E"/>
					<stop  offset="1" style="stop-color:#AB6600"/>
				</linearGradient>
				<path class="st43" d="M3016.2,156.8c0,0,44.1,83,38.4,116.5c-5.7,33.5-60.3,31.1-108,3.9l-33.3-89.6L3016.2,156.8z"/>
				
					<linearGradient id="SVGID_41_" gradientUnits="userSpaceOnUse" x1="-1602.6233" y1="3255.6392" x2="-1564.4617" y2="3037.9773" gradientTransform="matrix(0.746 -0.6659 -0.6659 -0.746 6197.7393 1445.8123)">
					<stop  offset="0" style="stop-color:#572459"/>
					<stop  offset="1" style="stop-color:#6B386D"/>
				</linearGradient>
				<path class="st44" d="M2948.7,233.1c1.9-0.9,2.7-3.2,1.5-5c-3.5-5.4-10.2-16.4-12.3-26c0,0-7.9-5.1,20.2-11.8
					c28.1-6.7,70-17.2,78.8-41.1c8.6-23.3-14-81.9-50-35.2c-1.4,1.8-4.1,1.8-5.4,0c-5.9-7.7-21.4-23.6-42.9-14
					c-20.2,9-22.4,23.8-22.1,31.3c0.1,2.2-1.9,3.9-4,3.5c-10.2-1.9-34.6-3.6-46.1,21.5c-9.4,20.7-3.3,32.4,2.3,38.1
					c1.8,1.9,1,4.9-1.5,5.7c-6.7,2-15.3,7.7-14.5,23.4c1.2,21.7,25.4,19.8,32.3,18.8c1.1-0.2,2.3,0.2,3,1.1
					c5.9,6.6,32.6,34.4,61.5,37.7c2.5,0.3,4.4-2.2,3.6-4.6l-12.5-36.3c-0.6-1.7,0.2-3.5,1.9-4.3L2948.7,233.1z"/>
				
					<linearGradient id="SVGID_42_" gradientUnits="userSpaceOnUse" x1="-1608.0861" y1="2994.1692" x2="-1649.1318" y2="3129.5491" gradientTransform="matrix(0.746 -0.6659 -0.6659 -0.746 6197.7393 1445.8123)">
					<stop  offset="0" style="stop-color:#C9B07E"/>
					<stop  offset="1" style="stop-color:#AB6600"/>
				</linearGradient>
				<path class="st45" d="M2953.7,238.3c0,0-31.4-21.5-33.7-3.4c-2.3,18.1,28.3,26.3,43.4,19.5L2953.7,238.3z"/>
			</g>
		</g>
	</g>
</g>
</svg>
